<?xml version="1.0" encoding="UTF-8"?>
<svg id="a" data-name="图层 1" xmlns="http://www.w3.org/2000/svg" width="100mm" height="100mm" viewBox="0 0 283.46 283.46">
  <path d="M141.83,224.84c1.49,0,2.84-19.85,2.84-36.27,0-16.43-1.34-36.24-2.83-36.25-1.47,0-3.03,19.21-3.05,36.06-.01,17.09,1.57,36.46,3.04,36.45Z" fill="#fed925"/>
  <path d="M110.02,218.55c1.38,.57,10.22-17.25,16.5-32.42,6.29-15.18,12.63-34,11.25-34.57-1.35-.57-10.15,16.58-16.62,32.15-6.55,15.79-12.5,34.28-11.14,34.84Z" fill="#fed925"/>
  <path d="M83.03,200.57c1.06,1.05,16.04-12.03,27.65-23.64,11.62-11.62,24.68-26.58,23.63-27.64-1.03-1.04-15.73,11.44-27.66,23.35-12.1,12.08-24.67,26.89-23.63,27.93Z" fill="#fed925"/>
  <path d="M64.99,173.62c.58,1.38,19.42-4.97,34.59-11.25,15.18-6.29,32.97-15.11,32.41-16.49-.56-1.36-18.91,4.55-34.49,10.98-15.8,6.53-33.08,15.4-32.51,16.76Z" fill="#fed925"/>
  <path d="M58.62,141.83c0,1.49,19.85,2.84,36.27,2.84,16.43,0,36.24-1.34,36.25-2.83,0-1.47-19.21-3.03-36.06-3.05-17.09-.01-36.46,1.57-36.45,3.04Z" fill="#fed925"/>
  <path d="M64.91,110.02c-.57,1.38,17.25,10.22,32.42,16.5,15.18,6.29,34,12.63,34.57,11.25,.57-1.35-16.58-10.15-32.15-16.62-15.79-6.55-34.28-12.5-34.84-11.14Z" fill="#fed925"/>
  <path d="M82.9,83.04c-1.05,1.06,12.03,16.04,23.64,27.65,11.62,11.62,26.58,24.68,27.64,23.63,1.04-1.03-11.44-15.73-23.35-27.66-12.08-12.1-26.89-24.67-27.93-23.62Z" fill="#fed925"/>
  <path d="M109.84,64.99c-1.38,.58,4.97,19.42,11.25,34.59,6.29,15.18,15.11,32.97,16.49,32.41,1.36-.56-4.55-18.91-10.98-34.49-6.53-15.8-15.4-33.08-16.76-32.51Z" fill="#fed925"/>
  <path d="M141.64,58.62c-1.49,0-2.84,19.85-2.84,36.27,0,16.43,1.34,36.24,2.83,36.25,1.47,0,3.03-19.21,3.05-36.06,.01-17.09-1.57-36.46-3.04-36.45Z" fill="#fed925"/>
  <path d="M173.45,64.91c-1.38-.57-10.22,17.25-16.5,32.42-6.29,15.18-12.63,34-11.25,34.57,1.35,.57,10.15-16.58,16.62-32.15,6.55-15.79,12.5-34.28,11.14-34.84Z" fill="#fed925"/>
  <path d="M200.43,82.9c-1.06-1.05-16.04,12.03-27.65,23.64-11.62,11.62-24.68,26.58-23.63,27.64,1.03,1.04,15.73-11.44,27.66-23.35,12.1-12.08,24.67-26.89,23.63-27.93Z" fill="#fed925"/>
  <path d="M218.48,109.84c-.58-1.38-19.42,4.97-34.59,11.25-15.18,6.29-32.97,15.11-32.41,16.49,.56,1.36,18.91-4.55,34.49-10.98,15.8-6.53,33.08-15.4,32.51-16.76Z" fill="#fed925"/>
  <path d="M224.84,141.64c0-1.49-19.85-2.84-36.27-2.84-16.43,0-36.24,1.34-36.25,2.83,0,1.47,19.21,3.03,36.06,3.05,17.09,.01,36.46-1.57,36.45-3.04Z" fill="#fed925"/>
  <path d="M218.55,173.45c.57-1.38-17.25-10.22-32.42-16.5-15.18-6.29-34-12.63-34.57-11.25-.57,1.35,16.58,10.15,32.15,16.62,15.79,6.55,34.28,12.5,34.84,11.14Z" fill="#fed925"/>
  <path d="M200.57,200.43c1.05-1.06-12.03-16.04-23.64-27.65-11.62-11.62-26.58-24.68-27.64-23.63-1.04,1.03,11.44,15.73,23.35,27.66,12.08,12.1,26.89,24.67,27.93,23.62Z" fill="#fed925"/>
  <path d="M173.63,218.48c1.38-.58-4.97-19.42-11.25-34.59-6.29-15.18-15.11-32.97-16.49-32.41-1.36,.56,4.55,18.91,10.98,34.49,6.53,15.8,15.4,33.08,16.76,32.51Z" fill="#fed925"/>
</svg>