<?xml version="1.0" encoding="UTF-8"?>
<svg id="a" data-name="图层 1" xmlns="http://www.w3.org/2000/svg" width="100mm" height="100mm" viewBox="0 0 283.46 283.46">
  <path d="M141.85,248.28c1.91,0,3.64-25.45,3.64-46.5,0-21.07-1.72-46.47-3.63-46.47-1.88,0-3.89,24.63-3.91,46.24-.02,21.91,2.01,46.74,3.9,46.73Z" fill="#ffd824"/>
  <path d="M101.07,240.22c1.77.72,13.1-22.12,21.16-41.56,8.06-19.46,16.19-43.59,14.43-44.33-1.73-.73-13.02,21.26-21.3,41.22-8.4,20.24-16.03,43.95-14.28,44.67Z" fill="#ffd824"/>
  <path d="M66.48,217.16c1.36,1.35,20.57-15.42,35.45-30.3,14.9-14.9,31.64-34.07,30.29-35.43-1.32-1.34-20.16,14.66-35.46,29.93-15.51,15.48-31.63,34.47-30.29,35.8Z" fill="#ffd824"/>
  <path d="M43.34,182.62c.74,1.76,24.9-6.38,44.35-14.43,19.47-8.06,42.27-19.37,41.55-21.14-.71-1.74-24.24,5.83-44.21,14.08-20.25,8.37-42.41,19.74-41.68,21.49Z" fill="#ffd824"/>
  <path d="M35.18,141.86c0,1.91,25.45,3.64,46.5,3.64,21.07,0,46.47-1.72,46.47-3.63,0-1.88-24.63-3.89-46.24-3.91-21.91-.02-46.74,2.01-46.73,3.9Z" fill="#ffd824"/>
  <path d="M43.24,101.07c-.72,1.77,22.12,13.1,41.56,21.16,19.46,8.06,43.59,16.19,44.33,14.43.73-1.73-21.26-13.02-41.22-21.3-20.24-8.4-43.95-16.03-44.67-14.28Z" fill="#ffd824"/>
  <path d="M66.3,66.48c-1.35,1.36,15.42,20.57,30.3,35.45,14.9,14.9,34.07,31.64,35.43,30.29,1.34-1.32-14.66-20.16-29.93-35.46-15.48-15.51-34.47-31.63-35.8-30.29Z" fill="#ffd824"/>
  <path d="M100.84,43.34c-1.76.74,6.38,24.9,14.43,44.35,8.06,19.46,19.37,42.27,21.14,41.55,1.74-.71-5.83-24.24-14.08-44.21-8.37-20.25-19.74-42.41-21.49-41.68Z" fill="#ffd824"/>
  <path d="M141.61,35.18c-1.91,0-3.64,25.45-3.64,46.5,0,21.07,1.72,46.47,3.63,46.47,1.88,0,3.89-24.63,3.91-46.24.02-21.91-2.01-46.74-3.9-46.73Z" fill="#ffd824"/>
  <path d="M182.39,43.25c-1.77-.72-13.1,22.12-21.16,41.56-8.06,19.46-16.19,43.59-14.43,44.33,1.73.73,13.02-21.26,21.3-41.22,8.4-20.24,16.03-43.95,14.28-44.67Z" fill="#ffd824"/>
  <path d="M216.99,66.3c-1.36-1.35-20.57,15.42-35.45,30.3-14.9,14.9-31.64,34.07-30.29,35.43,1.32,1.34,20.16-14.66,35.46-29.93,15.51-15.48,31.63-34.47,30.29-35.8Z" fill="#ffd824"/>
  <path d="M240.12,100.85c-.74-1.76-24.9,6.38-44.35,14.43-19.47,8.06-42.27,19.37-41.55,21.14.71,1.74,24.24-5.83,44.21-14.08,20.25-8.37,42.41-19.74,41.68-21.49Z" fill="#ffd824"/>
  <path d="M248.28,141.61c0-1.91-25.45-3.64-46.5-3.64-21.07,0-46.47,1.72-46.47,3.63,0,1.88,24.63,3.89,46.24,3.91,21.91.02,46.74-2.01,46.73-3.9Z" fill="#ffd824"/>
  <path d="M240.22,182.39c.72-1.77-22.12-13.1-41.56-21.16-19.46-8.06-43.59-16.19-44.33-14.43-.73,1.73,21.26,13.02,41.22,21.3,20.24,8.4,43.95,16.03,44.67,14.28Z" fill="#ffd824"/>
  <path d="M217.16,216.99c1.35-1.36-15.42-20.57-30.3-35.45-14.9-14.9-34.07-31.64-35.43-30.29-1.34,1.32,14.66,20.16,29.93,35.46,15.48,15.51,34.47,31.63,35.8,30.29Z" fill="#ffd824"/>
  <path d="M182.62,240.12c1.76-.74-6.38-24.9-14.43-44.35-8.06-19.46-19.37-42.27-21.14-41.55-1.74.71,5.83,24.24,14.08,44.21,8.37,20.25,19.74,42.41,21.49,41.68Z" fill="#ffd824"/>
</svg>