<?xml version="1.0" encoding="UTF-8"?>
<svg id="a" data-name="图层 1" xmlns="http://www.w3.org/2000/svg" width="100mm" height="100mm" viewBox="0 0 283.46 283.46">
  <path d="M135.35,173.97c1.03,.19,.24,5.67-.49,21.76-.07,1.46-1.33,29.43-7.63,38.14-.57,.78-2.12,2.93-3.61,2.65-1.43-.27-2.08-2.65-2.32-3.52-2.85-10.38,6.6-38.46,6.6-38.46,5.18-15.38,6.43-20.77,7.46-20.58Z" fill="#fbf6cb"/>
  <path d="M122.84,168.95c.88,.57-1.95,5.33-8.78,19.91-.62,1.32-12.49,26.68-21.65,32.32-.82,.51-3.08,1.9-4.35,1.07-1.22-.8-.91-3.25-.8-4.14,1.34-10.68,20.81-33,20.81-33,10.67-12.23,13.89-16.73,14.77-16.16Z" fill="#fbf6cb"/>
  <path d="M113.21,159.52c.59,.87-3.84,4.18-15.73,15.04-1.08,.99-21.75,19.87-32.37,21.57-.95,.15-3.58,.57-4.43-.68-.82-1.2,.4-3.35,.85-4.13,5.33-9.36,31.86-22.53,31.86-22.53,14.54-7.22,19.24-10.14,19.83-9.28Z" fill="#fbf6cb"/>
  <path d="M107.92,147.12c.22,1.03-5.15,2.39-20.29,7.87-1.37,.5-27.7,10.04-38.16,7.54-.94-.22-3.52-.84-3.83-2.32-.3-1.42,1.65-2.94,2.36-3.49,8.5-6.61,38.05-8.62,38.05-8.62,16.19-1.1,21.65-2.01,21.87-.98Z" fill="#fbf6cb"/>
  <path d="M107.78,133.64c-.19,1.03-5.67,.24-21.76-.49-1.46-.07-29.43-1.33-38.15-7.63-.78-.57-2.93-2.12-2.65-3.61,.27-1.43,2.65-2.08,3.52-2.32,10.38-2.85,38.46,6.6,38.46,6.6,15.38,5.18,20.77,6.43,20.58,7.46Z" fill="#fbf6cb"/>
  <path d="M112.8,121.13c-.57,.88-5.33-1.95-19.91-8.78-1.32-.62-26.68-12.49-32.32-21.65-.51-.82-1.9-3.08-1.07-4.35,.8-1.22,3.25-.91,4.14-.8,10.68,1.34,33,20.81,33,20.81,12.23,10.67,16.73,13.89,16.16,14.77Z" fill="#fbf6cb"/>
  <path d="M122.23,111.5c-.87,.59-4.18-3.84-15.04-15.73-.99-1.08-19.87-21.75-21.57-32.37-.15-.95-.57-3.58,.68-4.43,1.2-.82,3.35,.4,4.13,.85,9.36,5.33,22.53,31.86,22.53,31.86,7.22,14.54,10.14,19.24,9.28,19.83Z" fill="#fbf6cb"/>
  <path d="M134.63,106.21c-1.03,.22-2.39-5.14-7.87-20.29-.5-1.37-10.04-27.7-7.54-38.16,.22-.94,.84-3.52,2.32-3.83,1.42-.3,2.94,1.65,3.49,2.36,6.61,8.5,8.62,38.05,8.62,38.05,1.1,16.19,2.01,21.65,.98,21.87Z" fill="#fbf6cb"/>
  <path d="M148.11,106.06c-1.03-.19-.24-5.67,.49-21.76,.07-1.46,1.33-29.43,7.63-38.14,.57-.78,2.12-2.93,3.61-2.65,1.43,.27,2.08,2.65,2.32,3.52,2.85,10.38-6.6,38.46-6.6,38.46-5.18,15.38-6.43,20.77-7.46,20.58Z" fill="#fbf6cb"/>
  <path d="M160.62,111.09c-.88-.57,1.95-5.33,8.78-19.91,.62-1.32,12.49-26.68,21.65-32.32,.82-.51,3.08-1.9,4.35-1.07,1.22,.8,.91,3.25,.8,4.14-1.34,10.68-20.81,33-20.81,33-10.67,12.23-13.89,16.73-14.77,16.16Z" fill="#fbf6cb"/>
  <path d="M170.25,120.52c-.59-.87,3.84-4.18,15.73-15.04,1.08-.99,21.75-19.87,32.37-21.57,.95-.15,3.58-.57,4.43,.68,.82,1.2-.4,3.35-.85,4.13-5.33,9.36-31.86,22.53-31.86,22.53-14.54,7.22-19.24,10.14-19.83,9.28Z" fill="#fbf6cb"/>
  <path d="M175.55,132.92c-.22-1.03,5.15-2.39,20.29-7.87,1.37-.5,27.7-10.04,38.16-7.54,.94,.22,3.52,.84,3.83,2.32,.3,1.42-1.65,2.94-2.36,3.49-8.5,6.61-38.05,8.62-38.05,8.62-16.19,1.1-21.65,2.01-21.87,.98Z" fill="#fbf6cb"/>
  <path d="M175.69,146.4c.19-1.03,5.67-.24,21.76,.49,1.46,.07,29.43,1.33,38.15,7.63,.78,.57,2.93,2.12,2.65,3.61-.27,1.43-2.65,2.08-3.52,2.32-10.38,2.85-38.46-6.6-38.46-6.6-15.38-5.18-20.77-6.43-20.58-7.46Z" fill="#fbf6cb"/>
  <path d="M170.66,158.91c.57-.88,5.33,1.95,19.91,8.78,1.32,.62,26.68,12.49,32.32,21.65,.51,.82,1.9,3.08,1.07,4.35-.8,1.22-3.25,.91-4.14,.8-10.68-1.34-33-20.81-33-20.81-12.23-10.67-16.73-13.89-16.16-14.77Z" fill="#fbf6cb"/>
  <path d="M161.23,168.54c.87-.59,4.18,3.84,15.04,15.73,.99,1.08,19.87,21.75,21.57,32.37,.15,.95,.57,3.58-.68,4.43-1.2,.82-3.35-.4-4.13-.85-9.36-5.33-22.53-31.86-22.53-31.86-7.22-14.54-10.14-19.24-9.28-19.83Z" fill="#fbf6cb"/>
  <path d="M148.83,173.83c1.03-.22,2.39,5.14,7.87,20.29,.5,1.37,10.04,27.7,7.54,38.16-.22,.94-.84,3.52-2.32,3.83-1.42,.3-2.94-1.65-3.49-2.36-6.61-8.5-8.62-38.05-8.62-38.05-1.1-16.19-2.01-21.65-.98-21.87Z" fill="#fbf6cb"/>
</svg>