<?xml version="1.0" encoding="UTF-8"?>
<svg id="a" data-name="图层 1" xmlns="http://www.w3.org/2000/svg" width="100mm" height="100mm" viewBox="0 0 283.46 283.46">
  <path d="M133.55,185.27c1.32.25.31,7.27-.63,27.89-.08,1.87-1.7,37.73-9.79,48.9-.73,1-2.72,3.76-4.63,3.4-1.83-.35-2.67-3.4-2.98-4.51-3.65-13.31,8.46-49.3,8.46-49.3,6.64-19.72,8.24-26.63,9.56-26.38Z" fill="#faf5ca"/>
  <path d="M117.52,178.82c1.13.73-2.5,6.83-11.25,25.53-.79,1.7-16.01,34.21-27.76,41.44-1.05.65-3.95,2.43-5.58,1.37-1.56-1.02-1.17-4.17-1.02-5.3,1.72-13.7,26.68-42.31,26.68-42.31,13.68-15.68,17.81-21.45,18.93-20.72Z" fill="#faf5ca"/>
  <path d="M105.17,166.73c.76,1.11-4.92,5.35-20.17,19.28-1.38,1.26-27.88,25.48-41.5,27.66-1.22.2-4.59.73-5.68-.87-1.05-1.54.52-4.3,1.08-5.29,6.83-12,40.84-28.88,40.84-28.88,18.64-9.25,24.66-13,25.42-11.89Z" fill="#faf5ca"/>
  <path d="M98.38,150.84c.28,1.31-6.6,3.06-26.01,10.09-1.76.64-35.51,12.87-48.93,9.67-1.2-.29-4.52-1.08-4.91-2.98-.38-1.83,2.12-3.77,3.03-4.47,10.9-8.47,48.79-11.05,48.79-11.05,20.76-1.42,27.76-2.58,28.04-1.26Z" fill="#faf5ca"/>
  <path d="M98.2,133.55c-.25,1.32-7.27.31-27.89-.63-1.87-.08-37.73-1.7-48.9-9.79-1-.73-3.76-2.72-3.4-4.63.35-1.83,3.4-2.67,4.51-2.98,13.31-3.65,49.3,8.46,49.3,8.46,19.72,6.64,26.63,8.24,26.38,9.56Z" fill="#faf5ca"/>
  <path d="M104.64,117.52c-.73,1.13-6.83-2.5-25.53-11.25-1.7-.79-34.21-16.01-41.44-27.76-.65-1.05-2.43-3.95-1.37-5.58,1.02-1.56,4.17-1.17,5.3-1.02,13.7,1.72,42.31,26.68,42.31,26.68,15.68,13.68,21.45,17.81,20.72,18.93Z" fill="#faf5ca"/>
  <path d="M116.73,105.17c-1.11.76-5.35-4.92-19.28-20.17-1.26-1.38-25.48-27.88-27.66-41.5-.2-1.22-.73-4.59.87-5.68,1.54-1.05,4.3.52,5.29,1.08,12,6.83,28.88,40.84,28.88,40.84,9.25,18.64,13,24.66,11.89,25.42Z" fill="#faf5ca"/>
  <path d="M132.63,98.38c-1.31.28-3.06-6.6-10.09-26.01-.64-1.76-12.87-35.51-9.67-48.93.29-1.2,1.08-4.52,2.98-4.91,1.83-.38,3.77,2.12,4.47,3.03,8.47,10.9,11.05,48.79,11.05,48.79,1.42,20.76,2.58,27.76,1.26,28.04Z" fill="#faf5ca"/>
  <path d="M149.91,98.2c-1.32-.25-.31-7.27.63-27.89.08-1.87,1.7-37.73,9.79-48.9.73-1,2.72-3.76,4.63-3.4,1.83.35,2.67,3.4,2.98,4.51,3.65,13.31-8.46,49.3-8.46,49.3-6.64,19.72-8.24,26.63-9.56,26.38Z" fill="#faf5ca"/>
  <path d="M165.95,104.64c-1.13-.73,2.5-6.83,11.25-25.53.79-1.7,16.01-34.21,27.76-41.44,1.05-.65,3.95-2.43,5.58-1.37,1.56,1.02,1.17,4.17,1.02,5.3-1.72,13.7-26.68,42.31-26.68,42.31-13.68,15.68-17.81,21.45-18.93,20.72Z" fill="#faf5ca"/>
  <path d="M178.3,116.73c-.76-1.11,4.92-5.35,20.17-19.28,1.38-1.26,27.88-25.48,41.5-27.66,1.22-.2,4.59-.73,5.68.87,1.05,1.54-.52,4.3-1.08,5.29-6.83,12-40.84,28.88-40.84,28.88-18.64,9.25-24.66,13-25.42,11.89Z" fill="#faf5ca"/>
  <path d="M185.08,132.63c-.28-1.31,6.6-3.06,26.01-10.09,1.76-.64,35.51-12.87,48.93-9.67,1.2.29,4.52,1.08,4.91,2.98.38,1.83-2.12,3.77-3.03,4.47-10.9,8.47-48.79,11.05-48.79,11.05-20.76,1.42-27.76,2.58-28.04,1.26Z" fill="#faf5ca"/>
  <path d="M185.26,149.91c.25-1.32,7.27-.31,27.89.63,1.87.08,37.73,1.7,48.9,9.79,1,.73,3.76,2.72,3.4,4.63-.35,1.83-3.4,2.67-4.51,2.98-13.31,3.65-49.3-8.46-49.3-8.46-19.72-6.64-26.63-8.24-26.38-9.56Z" fill="#faf5ca"/>
  <path d="M178.82,165.95c.73-1.13,6.83,2.5,25.53,11.25,1.7.79,34.21,16.01,41.44,27.76.65,1.05,2.43,3.95,1.37,5.58-1.02,1.56-4.17,1.17-5.3,1.02-13.7-1.72-42.31-26.68-42.31-26.68-15.68-13.68-21.45-17.81-20.72-18.93Z" fill="#faf5ca"/>
  <path d="M166.73,178.3c1.11-.76,5.35,4.92,19.28,20.17,1.26,1.38,25.48,27.88,27.66,41.5.2,1.22.73,4.59-.87,5.68-1.54,1.05-4.3-.52-5.29-1.08-12-6.83-28.88-40.84-28.88-40.84-9.25-18.64-13-24.66-11.89-25.42Z" fill="#faf5ca"/>
  <path d="M150.83,185.08c1.31-.28,3.06,6.6,10.09,26.01.64,1.76,12.87,35.51,9.67,48.93-.29,1.2-1.08,4.52-2.98,4.91-1.83.38-3.77-2.12-4.47-3.03-8.47-10.9-11.05-48.79-11.05-48.79-1.42-20.76-2.58-27.76-1.26-28.04Z" fill="#faf5ca"/>
</svg>