<?xml version="1.0" encoding="UTF-8"?>
<svg id="a" data-name="图层 1" xmlns="http://www.w3.org/2000/svg" width="100mm" height="100mm" viewBox="0 0 283.46 283.46">
  <g id="b" data-name="&amp;lt;径向重复&amp;gt;">
    <path d="M100.38,242.17c.51.21-.47,2.91-2.5,11.04-.18.74-3.72,14.87-7.84,18.66-.37.34-1.39,1.28-2.12.98-.7-.29-.79-1.57-.82-2.03-.38-5.59,7.35-18.93,7.35-18.93,4.23-7.31,5.43-9.93,5.94-9.72Z" fill="#f3bb1f"/>
  </g>
  <g id="c" data-name="&amp;lt;径向重复&amp;gt;">
    <path d="M65.09,218.69c.39.38-1.55,2.51-6.54,9.24-.45.61-9.13,12.31-14.39,14.24-.47.17-1.77.65-2.33.09-.54-.53-.13-1.75.02-2.19,1.79-5.31,14.03-14.67,14.03-14.67,6.71-5.13,8.82-7.09,9.2-6.71Z" fill="#f3bb1f"/>
  </g>
  <g id="d" data-name="&amp;lt;径向重复&amp;gt;">
    <path d="M41.47,183.51c.21.5-2.39,1.73-9.58,6.04-.65.39-13.15,7.88-18.74,7.65-.5-.02-1.88-.08-2.19-.8-.29-.7.55-1.67.86-2.02,3.69-4.22,18.58-8.19,18.58-8.19,8.16-2.17,10.86-3.18,11.07-2.68Z" fill="#f3bb1f"/>
  </g>
  <g id="e" data-name="&amp;lt;径向重复&amp;gt;">
    <path d="M33.12,141.96c0,.55-2.87.69-11.16,1.91-.75.11-15.16,2.25-20.24-.11-.46-.21-1.71-.79-1.71-1.58,0-.76,1.15-1.33,1.57-1.54,5.02-2.49,20.3-.46,20.3-.46,8.37,1.11,11.25,1.22,11.25,1.76Z" fill="#f3bb1f"/>
  </g>
  <g id="f" data-name="&amp;lt;径向重复&amp;gt;">
    <path d="M41.3,100.38c-.21.51-2.91-.47-11.04-2.5-.74-.18-14.87-3.72-18.66-7.84-.34-.37-1.28-1.39-.98-2.12.29-.7,1.57-.79,2.03-.82,5.59-.38,18.93,7.35,18.93,7.35,7.31,4.23,9.93,5.43,9.72,5.94Z" fill="#f3bb1f"/>
  </g>
  <g id="g" data-name="&amp;lt;径向重复&amp;gt;">
    <path d="M64.77,65.09c-.38.39-2.51-1.55-9.25-6.54-.61-.45-12.31-9.13-14.24-14.39-.17-.47-.65-1.77-.09-2.33.53-.54,1.75-.13,2.19.02,5.31,1.79,14.68,14.03,14.68,14.03,5.13,6.71,7.09,8.82,6.71,9.2Z" fill="#f3bb1f"/>
  </g>
  <g id="h" data-name="&amp;lt;径向重复&amp;gt;">
    <path d="M99.95,41.47c-.5.21-1.73-2.39-6.04-9.58-.39-.65-7.88-13.15-7.65-18.74.02-.5.08-1.88.8-2.19.7-.29,1.67.55,2.02.86,4.22,3.69,8.19,18.58,8.19,18.58,2.17,8.16,3.18,10.86,2.68,11.07Z" fill="#f3bb1f"/>
  </g>
  <g id="i" data-name="&amp;lt;径向重复&amp;gt;">
    <path d="M141.5,33.12c-.55,0-.69-2.87-1.91-11.16-.11-.75-2.25-15.16.11-20.24.21-.46.79-1.71,1.58-1.71.76,0,1.33,1.15,1.54,1.57,2.49,5.02.46,20.3.46,20.3-1.11,8.37-1.22,11.25-1.76,11.25Z" fill="#f3bb1f"/>
  </g>
  <g id="j" data-name="&amp;lt;径向重复&amp;gt;">
    <path d="M183.08,41.3c-.51-.21.47-2.91,2.5-11.04.18-.74,3.72-14.87,7.84-18.66.37-.34,1.39-1.28,2.12-.98.7.29.79,1.57.82,2.03.38,5.59-7.35,18.93-7.35,18.93-4.23,7.31-5.43,9.93-5.94,9.72Z" fill="#f3bb1f"/>
  </g>
  <g id="k" data-name="&amp;lt;径向重复&amp;gt;">
    <path d="M218.37,64.76c-.39-.38,1.55-2.51,6.54-9.24.45-.61,9.13-12.31,14.39-14.24.47-.17,1.77-.65,2.33-.09.54.53.13,1.75-.02,2.19-1.79,5.31-14.03,14.67-14.03,14.67-6.71,5.13-8.82,7.09-9.2,6.71Z" fill="#f3bb1f"/>
  </g>
  <g id="l" data-name="&amp;lt;径向重复&amp;gt;">
    <path d="M241.99,99.95c-.21-.5,2.39-1.73,9.58-6.04.65-.39,13.15-7.88,18.74-7.65.5.02,1.88.08,2.19.8.29.7-.55,1.67-.86,2.02-3.69,4.22-18.58,8.19-18.58,8.19-8.16,2.17-10.86,3.18-11.07,2.68Z" fill="#f3bb1f"/>
  </g>
  <g id="m" data-name="&amp;lt;径向重复&amp;gt;">
    <path d="M250.35,141.5c0-.55,2.87-.69,11.16-1.91.75-.11,15.16-2.25,20.24.11.46.21,1.71.79,1.71,1.58,0,.76-1.15,1.33-1.57,1.54-5.02,2.49-20.3.46-20.3.46-8.37-1.11-11.25-1.22-11.25-1.76Z" fill="#f3bb1f"/>
  </g>
  <g id="n" data-name="&amp;lt;径向重复&amp;gt;">
    <path d="M242.17,183.08c.21-.51,2.91.47,11.04,2.5.74.18,14.87,3.72,18.66,7.84.34.37,1.28,1.39.98,2.12-.29.7-1.57.79-2.03.82-5.59.38-18.93-7.35-18.93-7.35-7.31-4.23-9.93-5.43-9.72-5.94Z" fill="#f3bb1f"/>
  </g>
  <g id="o" data-name="&amp;lt;径向重复&amp;gt;">
    <path d="M218.7,218.37c.38-.39,2.51,1.55,9.25,6.54.61.45,12.31,9.13,14.24,14.39.17.47.65,1.77.09,2.33-.53.54-1.75.13-2.19-.02-5.31-1.79-14.68-14.03-14.68-14.03-5.13-6.71-7.09-8.82-6.71-9.2Z" fill="#f3bb1f"/>
  </g>
  <g id="p" data-name="&amp;lt;径向重复&amp;gt;">
    <path d="M183.52,241.99c.5-.21,1.73,2.39,6.04,9.58.39.65,7.88,13.15,7.65,18.74-.02.5-.08,1.88-.8,2.19-.7.29-1.67-.55-2.02-.86-4.22-3.69-8.19-18.58-8.19-18.58-2.17-8.16-3.18-10.86-2.68-11.07Z" fill="#f3bb1f"/>
  </g>
  <g id="q" data-name="&amp;lt;径向重复&amp;gt;">
    <path d="M141.96,250.35c.55,0,.69,2.87,1.91,11.16.11.75,2.25,15.16-.11,20.24-.21.46-.79,1.71-1.58,1.71-.76,0-1.33-1.15-1.54-1.57-2.49-5.02-.46-20.3-.46-20.3,1.11-8.37,1.22-11.25,1.76-11.25Z" fill="#f3bb1f"/>
  </g>
</svg>