<?xml version="1.0" encoding="UTF-8"?>
<svg id="a" data-name="图层 1" xmlns="http://www.w3.org/2000/svg" width="100mm" height="100mm" viewBox="0 0 283.46 283.46">
  <g id="b" data-name="&amp;lt;径向重复&amp;gt;">
    <path d="M109.48,220.07c.39,.16-.36,2.27-1.95,8.61-.14,.58-2.91,11.6-6.12,14.56-.29,.27-1.08,1-1.65,.76-.55-.22-.61-1.22-.64-1.59-.3-4.36,5.73-14.76,5.73-14.76,3.3-5.7,4.24-7.74,4.63-7.58Z" fill="#f4bc1f"/>
  </g>
  <g id="c" data-name="&amp;lt;径向重复&amp;gt;">
    <path d="M81.95,201.76c.3,.3-1.21,1.96-5.1,7.21-.35,.48-7.12,9.6-11.22,11.11-.37,.13-1.38,.51-1.82,.07-.42-.42-.1-1.37,.02-1.71,1.4-4.14,10.94-11.45,10.94-11.45,5.23-4,6.88-5.53,7.18-5.23Z" fill="#f4bc1f"/>
  </g>
  <g id="d" data-name="&amp;lt;径向重复&amp;gt;">
    <path d="M63.53,174.32c.17,.39-1.86,1.35-7.47,4.71-.51,.3-10.26,6.15-14.62,5.97-.39-.02-1.47-.06-1.71-.63-.23-.54,.43-1.3,.67-1.57,2.87-3.29,14.49-6.39,14.49-6.39,6.36-1.7,8.47-2.48,8.64-2.09Z" fill="#f4bc1f"/>
  </g>
  <g id="e" data-name="&amp;lt;径向重复&amp;gt;">
    <path d="M57.01,141.91c0,.43-2.24,.53-8.71,1.49-.59,.09-11.83,1.75-15.79-.08-.36-.16-1.33-.62-1.34-1.23,0-.59,.9-1.04,1.22-1.2,3.92-1.94,15.83-.36,15.83-.36,6.53,.87,8.77,.95,8.78,1.38Z" fill="#f4bc1f"/>
  </g>
  <g id="f" data-name="&amp;lt;径向重复&amp;gt;">
    <path d="M63.39,109.48c-.16,.39-2.27-.36-8.61-1.95-.58-.14-11.6-2.91-14.56-6.12-.27-.29-1-1.08-.76-1.65,.22-.55,1.22-.61,1.59-.64,4.36-.3,14.76,5.73,14.76,5.73,5.7,3.3,7.74,4.24,7.58,4.63Z" fill="#f4bc1f"/>
  </g>
  <g id="g" data-name="&amp;lt;径向重复&amp;gt;">
    <path d="M81.7,81.95c-.3,.3-1.96-1.21-7.21-5.1-.48-.35-9.6-7.12-11.11-11.22-.13-.37-.51-1.38-.07-1.82,.42-.42,1.37-.1,1.71,.02,4.14,1.4,11.45,10.94,11.45,10.94,4,5.23,5.53,6.88,5.23,7.18Z" fill="#f4bc1f"/>
  </g>
  <g id="h" data-name="&amp;lt;径向重复&amp;gt;">
    <path d="M109.14,63.53c-.39,.17-1.35-1.86-4.71-7.47-.3-.51-6.15-10.26-5.97-14.62,.02-.39,.06-1.47,.63-1.71,.54-.23,1.3,.43,1.57,.67,3.29,2.87,6.39,14.49,6.39,14.49,1.7,6.36,2.48,8.47,2.09,8.64Z" fill="#f4bc1f"/>
  </g>
  <g id="i" data-name="&amp;lt;径向重复&amp;gt;">
    <path d="M141.55,57.01c-.43,0-.53-2.24-1.49-8.71-.09-.59-1.75-11.83,.08-15.79,.16-.36,.62-1.33,1.23-1.34,.59,0,1.04,.9,1.2,1.22,1.94,3.92,.36,15.83,.36,15.83-.87,6.53-.95,8.77-1.38,8.78Z" fill="#f4bc1f"/>
  </g>
  <g id="j" data-name="&amp;lt;径向重复&amp;gt;">
    <path d="M173.99,63.39c-.39-.16,.36-2.27,1.95-8.61,.14-.58,2.91-11.6,6.12-14.56,.29-.27,1.08-1,1.65-.76,.55,.22,.61,1.22,.64,1.59,.3,4.36-5.73,14.76-5.73,14.76-3.3,5.7-4.24,7.74-4.63,7.58Z" fill="#f4bc1f"/>
  </g>
  <g id="k" data-name="&amp;lt;径向重复&amp;gt;">
    <path d="M201.51,81.7c-.3-.3,1.21-1.96,5.1-7.21,.35-.48,7.12-9.6,11.22-11.11,.37-.13,1.38-.51,1.82-.07,.42,.42,.1,1.37-.02,1.71-1.4,4.14-10.94,11.45-10.94,11.45-5.23,4-6.88,5.53-7.18,5.23Z" fill="#f4bc1f"/>
  </g>
  <g id="l" data-name="&amp;lt;径向重复&amp;gt;">
    <path d="M219.93,109.14c-.17-.39,1.86-1.35,7.47-4.71,.51-.3,10.26-6.15,14.62-5.97,.39,.02,1.47,.06,1.71,.63,.23,.54-.43,1.3-.67,1.57-2.87,3.29-14.49,6.39-14.49,6.39-6.36,1.7-8.47,2.48-8.64,2.09Z" fill="#f4bc1f"/>
  </g>
  <g id="m" data-name="&amp;lt;径向重复&amp;gt;">
    <path d="M226.45,141.55c0-.43,2.24-.53,8.71-1.49,.59-.09,11.83-1.75,15.79,.08,.36,.16,1.33,.62,1.34,1.23,0,.59-.9,1.04-1.22,1.2-3.92,1.94-15.83,.36-15.83,.36-6.53-.87-8.77-.95-8.78-1.38Z" fill="#f4bc1f"/>
  </g>
  <g id="n" data-name="&amp;lt;径向重复&amp;gt;">
    <path d="M220.07,173.98c.16-.39,2.27,.36,8.61,1.95,.58,.14,11.6,2.91,14.56,6.12,.27,.29,1,1.08,.76,1.65-.22,.55-1.22,.61-1.59,.64-4.36,.3-14.76-5.73-14.76-5.73-5.7-3.3-7.74-4.24-7.58-4.63Z" fill="#f4bc1f"/>
  </g>
  <g id="o" data-name="&amp;lt;径向重复&amp;gt;">
    <path d="M201.77,201.51c.3-.3,1.96,1.21,7.21,5.1,.48,.35,9.6,7.12,11.11,11.22,.13,.37,.51,1.38,.07,1.82-.42,.42-1.37,.1-1.71-.02-4.14-1.4-11.45-10.94-11.45-10.94-4-5.23-5.53-6.88-5.23-7.18Z" fill="#f4bc1f"/>
  </g>
  <g id="p" data-name="&amp;lt;径向重复&amp;gt;">
    <path d="M174.32,219.93c.39-.17,1.35,1.86,4.71,7.47,.3,.51,6.15,10.26,5.97,14.62-.02,.39-.06,1.47-.63,1.71-.54,.23-1.3-.43-1.57-.67-3.29-2.87-6.39-14.49-6.39-14.49-1.7-6.36-2.48-8.47-2.09-8.64Z" fill="#f4bc1f"/>
  </g>
  <g id="q" data-name="&amp;lt;径向重复&amp;gt;">
    <path d="M141.91,226.45c.43,0,.53,2.24,1.49,8.71,.09,.59,1.75,11.83-.08,15.79-.16,.36-.62,1.33-1.23,1.34-.59,0-1.04-.9-1.2-1.22-1.94-3.92-.36-15.83-.36-15.83,.87-6.53,.95-8.77,1.38-8.78Z" fill="#f4bc1f"/>
  </g>
</svg>