<?xml version="1.0" encoding="UTF-8"?>
<svg id="a" data-name="图层 1" xmlns="http://www.w3.org/2000/svg" width="100mm" height="100mm" viewBox="0 0 283.46 283.46">
  <path d="M141.85,258.16c1.92,0,3.66-25.71,3.66-46.98,0-21.29-1.74-46.95-3.66-46.95-1.89,0-3.91,24.88-3.93,46.71-.02,22.14,2.03,47.22,3.93,47.22Z" fill="#ffd824"/>
  <path d="M99.61,250.28c1.8.69,12.66-22.65,20.31-42.48,7.66-19.85,15.27-44.41,13.48-45.11-1.76-.69-12.6,21.78-20.47,42.13-7.98,20.64-15.1,44.77-13.32,45.45Z" fill="#ffd824"/>
  <path d="M63.04,227.61c1.43,1.3,19.95-16.52,34.22-32.24,14.28-15.73,30.21-35.87,28.8-37.17-1.39-1.29-19.58,15.74-34.24,31.86-14.87,16.35-30.19,36.27-28.78,37.55Z" fill="#ffd824"/>
  <path d="M37.11,193.2c.86,1.73,24.55-8.17,43.51-17.65,18.98-9.49,41.08-22.49,40.23-24.22-.84-1.7-23.92,7.57-43.4,17.29-19.74,9.86-41.2,22.87-40.34,24.58Z" fill="#ffd824"/>
  <path d="M25.3,151.71c.19,1.92,25.83,1.29,46.92-.68,21.11-1.96,46.39-6.07,46.22-7.99-.17-1.89-25.03-1.62-46.69.38-21.96,2.03-46.64,6.38-46.46,8.28Z" fill="#ffd824"/>
  <path d="M29.22,108.74c-.52,1.86,23.63,10.57,44,16.39,20.39,5.83,45.44,11.17,45.98,9.32.53-1.83-22.76-10.59-43.67-16.58-21.2-6.07-45.79-10.97-46.3-9.13Z" fill="#ffd824"/>
  <path d="M48.32,70.1c-1.15,1.55,18.23,18.43,35.13,31.24,16.92,12.83,38.36,26.9,39.52,25.36,1.15-1.51-17.42-18.13-34.76-31.3-17.59-13.35-38.75-26.83-39.89-25.31Z" fill="#ffd824"/>
  <path d="M80.05,40.99c-1.63,1.02,10.37,23.79,21.52,41.87,11.16,18.1,26.09,39,27.73,37.99,1.61-.99-9.72-23.22-21.15-41.79-11.59-18.83-26.48-39.08-28.09-38.07Z" fill="#ffd824"/>
  <path d="M120.1,25.36c-1.89.36,1.11,25.95,5,46.85,3.9,20.92,10.3,45.83,12.19,45.48,1.86-.34-.71-25.18-4.69-46.64-4.04-21.77-10.63-46.04-12.5-45.69Z" fill="#ffd824"/>
  <path d="M163.07,25.31c-1.89-.35-8.3,24.6-12.19,45.5-3.9,20.92-6.88,46.47-5,46.83,1.86.36,8.4-23.74,12.41-45.19,4.07-21.76,6.65-46.79,4.78-47.14Z" fill="#ffd824"/>
  <path d="M203.16,40.85c-1.64-1.01-16.59,19.93-27.74,38.01-11.16,18.1-23.13,40.83-21.51,41.85,1.61,1.01,16.37-19.09,27.83-37.64,11.62-18.82,23.03-41.22,21.41-42.22Z" fill="#ffd824"/>
  <path d="M234.95,69.88c-1.17-1.54-22.64,12.56-39.54,25.38-16.92,12.83-36.26,29.68-35.11,31.23,1.13,1.52,22.13-11.86,39.49-25,17.61-13.33,36.31-30.08,35.16-31.6Z" fill="#ffd824"/>
  <path d="M254.15,108.49c-.53-1.86-25.63,3.5-46,9.32-20.39,5.82-44.49,14.53-43.97,16.38.51,1.83,24.9-3.03,45.82-8.99,21.21-6.04,44.68-14.88,44.15-16.71Z" fill="#ffd824"/>
  <path d="M258.17,151.45c.17-1.92-25.16-6.03-46.25-7.99-21.11-1.96-46.71-2.59-46.9-.67-.18,1.89,24.31,6.21,45.96,8.24,21.95,2.06,47.02,2.33,47.18.43Z" fill="#ffd824"/>
  <path d="M246.45,192.96c.85-1.73-21.29-14.75-40.25-24.23-18.98-9.49-42.63-19.36-43.49-17.64-.85,1.7,20.44,14.61,39.89,24.35,19.73,9.88,43,19.23,43.84,17.52Z" fill="#ffd824"/>
  <path d="M220.6,227.42c1.42-1.31-14.55-21.48-28.81-37.19-14.28-15.73-32.78-33.52-34.21-32.22-1.4,1.27,13.8,21.03,28.44,37.18,14.84,16.37,33.18,33.53,34.58,32.24Z" fill="#ffd824"/>
  <path d="M184.08,250.18c1.79-.7-5.84-25.3-13.49-45.13-7.66-19.85-18.51-43.14-20.3-42.46-1.77.68,5.3,24.62,13.14,44.98,7.95,20.65,18.88,43.3,20.65,42.6Z" fill="#ffd824"/>
</svg>