<?xml version="1.0" encoding="UTF-8"?>
<svg id="a" data-name="图层 1" xmlns="http://www.w3.org/2000/svg" width="100mm" height="100mm" viewBox="0 0 283.46 283.46">
  <g id="b" data-name="&amp;lt;径向重复&amp;gt;">
    <path d="M141.69,128.41c-1.59,0-1.93-8.45-5.32-32.81-.31-2.21-6.21-44.57,.8-59.42,.63-1.33,2.36-5,4.66-4.99,2.21,0,3.86,3.4,4.45,4.63,7.15,14.8,.84,59.6,.84,59.6-3.46,24.55-3.83,33-5.43,32.99Z" fill="#fbf6cb"/>
  </g>
  <g id="c" data-name="&amp;lt;径向重复&amp;gt;">
    <path d="M146.82,129.35c-1.49-.58,1.24-8.58,6.84-32.53,.51-2.17,10.25-43.81,22.13-55.12,1.07-1.01,4-3.81,6.14-2.96,2.06,.81,2.37,4.57,2.48,5.93,1.35,16.39-20.66,55.88-20.66,55.88-12.06,21.63-15.45,29.38-16.93,28.8Z" fill="#fbf6cb"/>
  </g>
  <g id="d" data-name="&amp;lt;径向重复&amp;gt;">
    <path d="M151.26,132.1c-1.18-1.08,4.24-7.55,18.08-27.85,1.26-1.84,25.32-37.14,40.46-43.37,1.36-.56,5.1-2.1,6.8-.53,1.63,1.5,.57,5.12,.18,6.43-4.64,15.77-39.37,44.61-39.37,44.61-19.03,15.8-24.97,21.79-26.15,20.71Z" fill="#fbf6cb"/>
  </g>
  <g id="e" data-name="&amp;lt;径向重复&amp;gt;">
    <path d="M154.41,136.27c-.71-1.43,6.67-5.5,26.88-19.41,1.83-1.26,36.97-25.44,53.33-25.76,1.47-.03,5.51-.11,6.53,1.97,.98,1.99-1.32,4.98-2.15,6.06-10,13.03-52.76,27.32-52.76,27.32-23.43,7.83-31.12,11.26-31.83,9.83Z" fill="#fbf6cb"/>
  </g>
  <g id="f" data-name="&amp;lt;径向重复&amp;gt;">
    <path d="M155.85,141.3c-.14-1.59,8.2-2.71,32.05-8.35,2.16-.51,43.63-10.32,59-4.68,1.38,.51,5.18,1.9,5.38,4.2,.2,2.21-3.02,4.17-4.18,4.88-14.01,8.52-59.02,6.33-59.02,6.33-24.66-1.2-33.07-.79-33.22-2.38Z" fill="#fbf6cb"/>
  </g>
  <g id="g" data-name="&amp;lt;径向重复&amp;gt;">
    <path d="M155.38,146.52c.44-1.54,8.62,.44,32.89,3.84,2.2,.31,44.39,6.2,56.7,17.04,1.1,.97,4.14,3.65,3.51,5.87-.61,2.14-4.32,2.79-5.66,3.03-16.13,2.86-57.32-15.5-57.32-15.5-22.56-10.06-30.56-12.73-30.12-14.27Z" fill="#fbf6cb"/>
  </g>
  <g id="h" data-name="&amp;lt;径向重复&amp;gt;">
    <path d="M153.07,151.21c.96-1.28,7.88,3.54,29.28,15.51,1.94,1.09,39.16,21.89,46.74,36.45,.68,1.31,2.55,4.9,1.16,6.75-1.34,1.77-5.03,1.04-6.36,.77-16.07-3.19-47.87-35.25-47.87-35.25-17.42-17.57-23.91-22.96-22.95-24.23Z" fill="#fbf6cb"/>
  </g>
  <g id="i" data-name="&amp;lt;径向重复&amp;gt;">
    <path d="M149.22,154.75c1.36-.84,6.07,6.16,21.73,25.08,1.42,1.72,28.64,34.61,30.47,50.95,.16,1.47,.62,5.5-1.35,6.71-1.89,1.16-5.06-.86-6.21-1.59-13.84-8.8-31.96-50.23-31.96-50.23-9.93-22.7-14.04-30.08-12.68-30.92Z" fill="#fbf6cb"/>
  </g>
  <g id="j" data-name="&amp;lt;径向重复&amp;gt;">
    <path d="M144.36,156.65c1.57-.29,3.45,7.94,11.24,31.27,.71,2.12,14.26,42.67,10.08,58.56-.37,1.43-1.4,5.35-3.67,5.77-2.18,.4-4.41-2.63-5.22-3.73-9.74-13.23-11.73-58.43-11.73-58.43-1.09-24.77-2.27-33.14-.7-33.43Z" fill="#fbf6cb"/>
  </g>
  <g id="k" data-name="&amp;lt;径向重复&amp;gt;">
    <path d="M139.15,156.66c1.57,.3,.36,8.66-.77,33.23-.1,2.23-2.06,44.96-11.66,58.26-.86,1.19-3.23,4.48-5.5,4.05-2.17-.42-3.17-4.06-3.53-5.38-4.32-15.87,10.08-58.74,10.08-58.74,7.89-23.49,9.81-31.73,11.37-31.43Z" fill="#fbf6cb"/>
  </g>
  <g id="l" data-name="&amp;lt;径向重复&amp;gt;">
    <path d="M134.28,154.79c1.35,.84-2.78,8.2-12.68,30.71-.9,2.04-18.09,41.17-31.84,50.1-1.23,.8-4.63,3-6.58,1.78-1.88-1.18-1.49-4.93-1.35-6.29,1.68-16.36,30.54-51.11,30.54-51.11,15.81-19.04,20.56-26.03,21.91-25.18Z" fill="#fbf6cb"/>
  </g>
  <g id="m" data-name="&amp;lt;径向重复&amp;gt;">
    <path d="M130.42,151.27c.96,1.28-5.55,6.64-22.87,24.04-1.57,1.58-31.68,31.83-47.71,35.17-1.44,.3-5.4,1.12-6.78-.73-1.33-1.78,.38-5.14,1-6.36,7.45-14.65,46.86-36.59,46.86-36.59,21.59-12.02,28.53-16.81,29.49-15.53Z" fill="#fbf6cb"/>
  </g>
  <g id="n" data-name="&amp;lt;径向重复&amp;gt;">
    <path d="M128.08,146.59c.43,1.54-7.56,4.18-29.97,14.12-2.03,.9-40.99,18.19-57.14,15.49-1.45-.24-5.44-.91-6.06-3.14-.6-2.14,2.21-4.66,3.22-5.57,12.22-10.96,56.86-17.12,56.86-17.12,24.46-3.37,32.66-5.33,33.09-3.78Z" fill="#fbf6cb"/>
  </g>
  <g id="o" data-name="&amp;lt;径向重复&amp;gt;">
    <path d="M127.59,141.37c-.15,1.59-8.55,1.15-33.03,2.29-2.22,.1-44.77,2.09-58.85-6.29-1.26-.75-4.74-2.82-4.52-5.12,.21-2.21,3.73-3.54,5.01-4.02,15.33-5.79,59.18,4.66,59.18,4.66,24.02,5.73,32.37,6.88,32.22,8.47Z" fill="#fbf6cb"/>
  </g>
  <g id="p" data-name="&amp;lt;径向重复&amp;gt;">
    <path d="M129,136.33c-.71,1.43-8.39-2.03-31.62-9.84-2.11-.71-42.5-14.29-52.62-27.21-.91-1.16-3.41-4.35-2.37-6.42,.99-1.99,4.75-1.95,6.11-1.93,16.38,.17,53.5,25.81,53.5,25.81,20.34,14.05,27.71,18.15,26.99,19.59Z" fill="#fbf6cb"/>
  </g>
  <g id="q" data-name="&amp;lt;径向重复&amp;gt;">
    <path d="M132.14,132.15c-1.18,1.08-7.1-4.93-25.95-20.65-1.71-1.43-34.49-28.74-39.27-44.46-.43-1.41-1.61-5.29,.1-6.84,1.64-1.49,5.13-.09,6.4,.41,15.21,6.1,40.6,43.48,40.6,43.48,13.91,20.48,19.3,26.98,18.12,28.05Z" fill="#fbf6cb"/>
  </g>
  <g id="r" data-name="&amp;lt;径向重复&amp;gt;">
    <path d="M136.56,129.38c-1.49,.58-4.84-7.17-16.77-28.66-1.08-1.95-21.82-39.31-20.63-55.7,.11-1.47,.4-5.52,2.55-6.35,2.07-.8,4.82,1.78,5.82,2.71,11.99,11.2,22.22,55.27,22.22,55.27,5.6,24.14,8.29,32.16,6.81,32.73Z" fill="#fbf6cb"/>
  </g>
</svg>