<?xml version="1.0" encoding="UTF-8"?>
<svg id="a" data-name="图层 1" xmlns="http://www.w3.org/2000/svg" width="100mm" height="100mm" viewBox="0 0 283.46 283.46">
  <g id="b" data-name="&amp;lt;径向重复&amp;gt;">
    <g id="c" data-name="&amp;lt;径向重复&amp;gt;">
      <path d="M141.69,85.4c-1.29,0-1.56-6.83-4.3-26.52-.25-1.79-5.02-36.03.65-48.03.51-1.08,1.91-4.04,3.77-4.04,1.79,0,3.12,2.75,3.6,3.75,5.78,11.96.68,48.18.68,48.18-2.8,19.84-3.1,26.67-4.39,26.67Z" fill="#f3bb1f"/>
    </g>
  </g>
  <g id="d" data-name="&amp;lt;径向重复&amp;gt;">
    <g id="e" data-name="&amp;lt;径向重复&amp;gt;">
      <path d="M162.37,89.27c-1.2-.47,1-6.93,5.53-26.29.41-1.76,8.28-35.42,17.89-44.56.86-.82,3.23-3.08,4.97-2.4,1.67.65,1.92,3.7,2.01,4.8,1.09,13.25-16.7,45.17-16.7,45.17-9.75,17.49-12.49,23.75-13.69,23.28Z" fill="#f3bb1f"/>
    </g>
  </g>
  <g id="f" data-name="&amp;lt;径向重复&amp;gt;">
    <g id="g" data-name="&amp;lt;径向重复&amp;gt;">
      <path d="M180.26,100.38c-.95-.87,3.43-6.1,14.62-22.51,1.02-1.49,20.47-30.02,32.71-35.06,1.1-.45,4.12-1.7,5.49-.43,1.32,1.21.46,4.14.15,5.2-3.75,12.75-31.83,36.06-31.83,36.06-15.38,12.77-20.19,17.61-21.14,16.74Z" fill="#f3bb1f"/>
    </g>
  </g>
  <g id="h" data-name="&amp;lt;径向重复&amp;gt;">
    <g id="i" data-name="&amp;lt;径向重复&amp;gt;">
      <path d="M192.94,117.22c-.57-1.16,5.39-4.45,21.73-15.69,1.48-1.02,29.88-20.57,43.11-20.83,1.19-.02,4.45-.09,5.28,1.59.79,1.61-1.06,4.03-1.74,4.9-8.09,10.53-42.65,22.08-42.65,22.08-18.94,6.33-25.16,9.1-25.73,7.94Z" fill="#f3bb1f"/>
    </g>
  </g>
  <g id="j" data-name="&amp;lt;径向重复&amp;gt;">
    <g id="k" data-name="&amp;lt;径向重复&amp;gt;">
      <path d="M198.71,137.54c-.12-1.29,6.63-2.19,25.91-6.75,1.75-.41,35.27-8.34,47.69-3.78,1.11.41,4.18,1.53,4.35,3.4.16,1.79-2.44,3.37-3.38,3.94-11.33,6.89-47.71,5.12-47.71,5.12-19.93-.97-26.74-.64-26.85-1.93Z" fill="#f3bb1f"/>
    </g>
  </g>
  <g id="l" data-name="&amp;lt;径向重复&amp;gt;">
    <g id="m" data-name="&amp;lt;径向重复&amp;gt;">
      <path d="M196.78,158.57c.35-1.24,6.97.36,26.58,3.1,1.78.25,35.88,5.02,45.83,13.77.89.79,3.35,2.95,2.83,4.75-.5,1.73-3.49,2.26-4.57,2.45-13.04,2.31-46.33-12.53-46.33-12.53-18.24-8.13-24.7-10.29-24.35-11.54Z" fill="#f3bb1f"/>
    </g>
  </g>
  <g id="n" data-name="&amp;lt;径向重复&amp;gt;">
    <g id="o" data-name="&amp;lt;径向重复&amp;gt;">
      <path d="M187.41,177.48c.78-1.03,6.37,2.86,23.67,12.54,1.57.88,31.66,17.69,37.78,29.47.55,1.06,2.06,3.96.94,5.45-1.08,1.43-4.07.84-5.14.63-12.99-2.57-38.7-28.49-38.7-28.49-14.08-14.2-19.33-18.56-18.55-19.59Z" fill="#f3bb1f"/>
    </g>
  </g>
  <g id="p" data-name="&amp;lt;径向重复&amp;gt;">
    <g id="q" data-name="&amp;lt;径向重复&amp;gt;">
      <path d="M171.88,191.71c1.1-.68,4.91,4.98,17.56,20.28,1.15,1.39,23.15,27.98,24.63,41.18.13,1.18.5,4.44-1.09,5.42-1.52.94-4.09-.69-5.02-1.28-11.19-7.11-25.83-40.6-25.83-40.6-8.02-18.35-11.35-24.32-10.25-25Z" fill="#f3bb1f"/>
    </g>
  </g>
  <g id="r" data-name="&amp;lt;径向重复&amp;gt;">
    <g id="s" data-name="&amp;lt;径向重复&amp;gt;">
      <path d="M152.27,199.35c1.27-.24,2.79,6.42,9.08,25.28.57,1.71,11.52,34.49,8.15,47.34-.3,1.15-1.14,4.33-2.97,4.66-1.76.32-3.57-2.13-4.22-3.02-7.87-10.69-9.48-47.23-9.48-47.23-.88-20.02-1.83-26.79-.57-27.03Z" fill="#f3bb1f"/>
    </g>
  </g>
  <g id="t" data-name="&amp;lt;径向重复&amp;gt;">
    <g id="u" data-name="&amp;lt;径向重复&amp;gt;">
      <path d="M131.24,199.36c1.27.24.29,7-.62,26.87-.08,1.8-1.66,36.34-9.43,47.1-.7.96-2.61,3.62-4.44,3.27-1.76-.34-2.56-3.28-2.85-4.35-3.5-12.83,8.15-47.48,8.15-47.48,6.38-18.99,7.93-25.65,9.2-25.41Z" fill="#f3bb1f"/>
    </g>
  </g>
  <g id="v" data-name="&amp;lt;径向重复&amp;gt;">
    <g id="w" data-name="&amp;lt;径向重复&amp;gt;">
      <path d="M111.62,191.74c1.09.68-2.25,6.63-10.25,24.83-.73,1.65-14.62,33.28-25.74,40.5-1,.65-3.74,2.43-5.32,1.44-1.52-.95-1.21-3.99-1.09-5.09,1.35-13.23,24.68-41.32,24.68-41.32,12.78-15.39,16.62-21.04,17.71-20.36Z" fill="#f3bb1f"/>
    </g>
  </g>
  <g id="x" data-name="&amp;lt;径向重复&amp;gt;">
    <g id="y" data-name="&amp;lt;径向重复&amp;gt;">
      <path d="M96.07,177.52c.78,1.03-4.48,5.37-18.49,19.43-1.27,1.28-25.61,25.73-38.57,28.43-1.16.24-4.36.91-5.48-.59-1.07-1.44.31-4.16.81-5.14,6.02-11.84,37.88-29.58,37.88-29.58,17.46-9.72,23.07-13.59,23.84-12.56Z" fill="#f3bb1f"/>
    </g>
  </g>
  <g id="z" data-name="&amp;lt;径向重复&amp;gt;">
    <g id="aa" data-name="&amp;lt;径向重复&amp;gt;">
      <path d="M86.68,158.62c.35,1.25-6.11,3.38-24.23,11.41-1.64.73-33.14,14.7-46.19,12.52-1.17-.2-4.39-.74-4.9-2.54-.48-1.73,1.78-3.76,2.6-4.5,9.88-8.86,45.96-13.84,45.96-13.84,19.77-2.73,26.4-4.31,26.75-3.06Z" fill="#f3bb1f"/>
    </g>
  </g>
  <g id="ab" data-name="&amp;lt;径向重复&amp;gt;">
    <g id="ac" data-name="&amp;lt;径向重复&amp;gt;">
      <path d="M84.73,137.59c-.12,1.29-6.91.93-26.7,1.85-1.79.08-36.19,1.69-47.57-5.08-1.02-.61-3.83-2.28-3.65-4.14.17-1.79,3.02-2.86,4.05-3.25,12.4-4.68,47.84,3.77,47.84,3.77,19.42,4.63,26.16,5.56,26.04,6.85Z" fill="#f3bb1f"/>
    </g>
  </g>
  <g id="ad" data-name="&amp;lt;径向重复&amp;gt;">
    <g id="ae" data-name="&amp;lt;径向重复&amp;gt;">
      <path d="M90.48,117.28c-.58,1.16-6.78-1.64-25.56-7.96-1.7-.57-34.36-11.55-42.53-21.99-.73-.94-2.75-3.52-1.92-5.19.8-1.61,3.84-1.57,4.94-1.56,13.24.13,43.25,20.87,43.25,20.87,16.44,11.36,22.4,14.68,21.82,15.83Z" fill="#f3bb1f"/>
    </g>
  </g>
  <g id="af" data-name="&amp;lt;径向重复&amp;gt;">
    <g id="ag" data-name="&amp;lt;径向重复&amp;gt;">
      <path d="M103.15,100.42c-.95.87-5.74-3.99-20.98-16.69-1.38-1.15-27.88-23.23-31.75-35.94-.35-1.14-1.3-4.28.08-5.53,1.33-1.21,4.15-.07,5.17.33,12.3,4.93,32.82,35.15,32.82,35.15,11.25,16.56,15.6,21.81,14.65,22.68Z" fill="#f3bb1f"/>
    </g>
  </g>
  <g id="ah" data-name="&amp;lt;径向重复&amp;gt;">
    <g id="ai" data-name="&amp;lt;径向重复&amp;gt;">
      <path d="M121.02,89.29c-1.2.47-3.91-5.8-13.55-23.17-.87-1.58-17.64-31.78-16.68-45.03.09-1.19.32-4.46,2.06-5.13,1.67-.64,3.9,1.44,4.7,2.19,9.7,9.06,17.96,44.68,17.96,44.68,4.53,19.52,6.71,26,5.5,26.46Z" fill="#f3bb1f"/>
    </g>
  </g>
</svg>