<?xml version="1.0" encoding="UTF-8"?>
<svg id="a" data-name="图层 1" xmlns="http://www.w3.org/2000/svg" width="100mm" height="100mm" viewBox="0 0 283.46 283.46">
  <g id="b" data-name="&amp;lt;径向重复&amp;gt;">
    <g id="c" data-name="&amp;lt;径向重复&amp;gt;">
      <path d="M141.7,97.79c-1.01,0-1.22-5.33-3.36-20.69-.19-1.39-3.91-28.1,.51-37.47,.4-.84,1.49-3.15,2.94-3.15,1.4,0,2.43,2.15,2.81,2.92,4.51,9.33,.53,37.58,.53,37.58-2.18,15.48-2.42,20.8-3.42,20.8Z" fill="#f4bc1f"/>
    </g>
  </g>
  <g id="d" data-name="&amp;lt;径向重复&amp;gt;">
    <g id="e" data-name="&amp;lt;径向重复&amp;gt;">
      <path d="M157.83,100.81c-.94-.37,.78-5.41,4.31-20.51,.32-1.37,6.46-27.62,13.95-34.75,.67-.64,2.52-2.4,3.87-1.87,1.3,.51,1.49,2.88,1.57,3.74,.85,10.34-13.03,35.23-13.03,35.23-7.6,13.64-9.74,18.52-10.68,18.16Z" fill="#f4bc1f"/>
    </g>
  </g>
  <g id="f" data-name="&amp;lt;径向重复&amp;gt;">
    <g id="g" data-name="&amp;lt;径向重复&amp;gt;">
      <path d="M171.78,109.48c-.74-.68,2.67-4.76,11.4-17.56,.79-1.16,15.96-23.42,25.51-27.35,.86-.35,3.21-1.32,4.29-.34,1.03,.95,.36,3.23,.11,4.06-2.93,9.95-24.82,28.13-24.82,28.13-12,9.96-15.75,13.74-16.49,13.06Z" fill="#f4bc1f"/>
    </g>
  </g>
  <g id="h" data-name="&amp;lt;径向重复&amp;gt;">
    <g id="i" data-name="&amp;lt;径向重复&amp;gt;">
      <path d="M181.68,122.62c-.45-.9,4.2-3.47,16.95-12.24,1.16-.8,23.31-16.04,33.63-16.25,.93-.02,3.47-.07,4.12,1.24,.62,1.26-.83,3.14-1.35,3.82-6.31,8.21-33.27,17.22-33.27,17.22-14.77,4.94-19.63,7.1-20.07,6.2Z" fill="#f4bc1f"/>
    </g>
  </g>
  <g id="j" data-name="&amp;lt;径向重复&amp;gt;">
    <g id="k" data-name="&amp;lt;径向重复&amp;gt;">
      <path d="M186.17,138.46c-.09-1.01,5.17-1.71,20.21-5.26,1.36-.32,27.51-6.51,37.2-2.95,.87,.32,3.26,1.2,3.39,2.65,.12,1.4-1.9,2.63-2.64,3.07-8.84,5.37-37.22,3.99-37.22,3.99-15.55-.75-20.85-.5-20.95-1.5Z" fill="#f4bc1f"/>
    </g>
  </g>
  <g id="l" data-name="&amp;lt;径向重复&amp;gt;">
    <g id="m" data-name="&amp;lt;径向重复&amp;gt;">
      <path d="M184.67,154.86c.28-.97,5.43,.28,20.74,2.42,1.39,.19,27.99,3.91,35.75,10.74,.7,.61,2.61,2.3,2.21,3.7-.39,1.35-2.72,1.76-3.57,1.91-10.17,1.8-36.14-9.78-36.14-9.78-14.23-6.34-19.27-8.03-18.99-9Z" fill="#f4bc1f"/>
    </g>
  </g>
  <g id="n" data-name="&amp;lt;径向重复&amp;gt;">
    <g id="o" data-name="&amp;lt;径向重复&amp;gt;">
      <path d="M177.36,169.61c.61-.8,4.97,2.23,18.46,9.78,1.22,.68,24.69,13.8,29.47,22.98,.43,.82,1.61,3.09,.73,4.25-.84,1.12-3.17,.65-4.01,.49-10.13-2.01-30.18-22.22-30.18-22.22-10.98-11.08-15.08-14.48-14.47-15.28Z" fill="#f4bc1f"/>
    </g>
  </g>
  <g id="p" data-name="&amp;lt;径向重复&amp;gt;">
    <g id="q" data-name="&amp;lt;径向重复&amp;gt;">
      <path d="M165.25,180.72c.86-.53,3.83,3.88,13.7,15.82,.9,1.08,18.06,21.83,19.21,32.12,.1,.92,.39,3.47-.85,4.23-1.19,.73-3.19-.54-3.92-1-8.73-5.55-20.15-31.67-20.15-31.67-6.26-14.31-8.85-18.97-8-19.5Z" fill="#f4bc1f"/>
    </g>
  </g>
  <g id="r" data-name="&amp;lt;径向重复&amp;gt;">
    <g id="s" data-name="&amp;lt;径向重复&amp;gt;">
      <path d="M149.95,186.68c.99-.18,2.17,5.01,7.08,19.72,.45,1.33,8.99,26.9,6.36,36.92-.24,.9-.89,3.37-2.31,3.64-1.37,.25-2.78-1.66-3.29-2.35-6.14-8.34-7.39-36.84-7.39-36.84-.69-15.62-1.43-20.9-.44-21.08Z" fill="#f4bc1f"/>
    </g>
  </g>
  <g id="t" data-name="&amp;lt;径向重复&amp;gt;">
    <g id="u" data-name="&amp;lt;径向重复&amp;gt;">
      <path d="M133.55,186.68c.99,.19,.22,5.46-.49,20.96-.06,1.41-1.3,28.35-7.35,36.74-.54,.75-2.04,2.82-3.47,2.55-1.37-.26-2-2.56-2.22-3.39-2.73-10,6.36-37.04,6.36-37.04,4.98-14.81,6.18-20,7.17-19.82Z" fill="#f4bc1f"/>
    </g>
  </g>
  <g id="v" data-name="&amp;lt;径向重复&amp;gt;">
    <g id="w" data-name="&amp;lt;径向重复&amp;gt;">
      <path d="M118.24,180.74c.85,.53-1.76,5.17-7.99,19.36-.57,1.29-11.41,25.96-20.07,31.59-.78,.5-2.92,1.89-4.15,1.12-1.18-.74-.94-3.11-.85-3.97,1.06-10.32,19.25-32.23,19.25-32.23,9.97-12.01,12.96-16.41,13.82-15.88Z" fill="#f4bc1f"/>
    </g>
  </g>
  <g id="x" data-name="&amp;lt;径向重复&amp;gt;">
    <g id="y" data-name="&amp;lt;径向重复&amp;gt;">
      <path d="M106.11,169.65c.6,.81-3.5,4.19-14.42,15.16-.99,1-19.98,20.07-30.08,22.17-.91,.19-3.4,.71-4.27-.46-.84-1.12,.24-3.24,.63-4.01,4.7-9.24,29.55-23.07,29.55-23.07,13.62-7.58,17.99-10.6,18.6-9.79Z" fill="#f4bc1f"/>
    </g>
  </g>
  <g id="z" data-name="&amp;lt;径向重复&amp;gt;">
    <g id="aa" data-name="&amp;lt;径向重复&amp;gt;">
      <path d="M98.79,154.91c.27,.97-4.77,2.63-18.9,8.9-1.28,.57-25.85,11.47-36.03,9.76-.91-.15-3.43-.57-3.82-1.98-.38-1.35,1.39-2.94,2.03-3.51,7.7-6.91,35.85-10.79,35.85-10.79,15.42-2.13,20.59-3.36,20.86-2.39Z" fill="#f4bc1f"/>
    </g>
  </g>
  <g id="ab" data-name="&amp;lt;径向重复&amp;gt;">
    <g id="ac" data-name="&amp;lt;径向重复&amp;gt;">
      <path d="M97.27,138.5c-.09,1.01-5.39,.73-20.83,1.45-1.4,.07-28.23,1.32-37.11-3.96-.8-.47-2.99-1.78-2.85-3.23,.13-1.39,2.35-2.23,3.16-2.54,9.67-3.65,37.31,2.94,37.31,2.94,15.15,3.61,20.41,4.34,20.31,5.34Z" fill="#f4bc1f"/>
    </g>
  </g>
  <g id="ad" data-name="&amp;lt;径向重复&amp;gt;">
    <g id="ae" data-name="&amp;lt;径向重复&amp;gt;">
      <path d="M101.75,122.66c-.45,.9-5.29-1.28-19.94-6.21-1.33-.45-26.8-9.01-33.18-17.16-.57-.73-2.15-2.74-1.5-4.05,.63-1.25,3-1.23,3.86-1.22,10.33,.1,33.74,16.28,33.74,16.28,12.82,8.86,17.47,11.45,17.02,12.35Z" fill="#f4bc1f"/>
    </g>
  </g>
  <g id="af" data-name="&amp;lt;径向重复&amp;gt;">
    <g id="ag" data-name="&amp;lt;径向重复&amp;gt;">
      <path d="M111.64,109.51c-.74,.68-4.47-3.11-16.36-13.02-1.08-.9-21.75-18.12-24.76-28.03-.27-.89-1.02-3.34,.06-4.32,1.03-.94,3.24-.06,4.03,.26,9.59,3.84,25.6,27.41,25.6,27.41,8.77,12.91,12.17,17.01,11.43,17.69Z" fill="#f4bc1f"/>
    </g>
  </g>
  <g id="ah" data-name="&amp;lt;径向重复&amp;gt;">
    <g id="ai" data-name="&amp;lt;径向重复&amp;gt;">
      <path d="M125.58,100.83c-.94,.36-3.05-4.52-10.57-18.07-.68-1.23-13.76-24.79-13.01-35.12,.07-.93,.25-3.48,1.61-4,1.3-.5,3.04,1.12,3.67,1.71,7.56,7.06,14.01,34.85,14.01,34.85,3.53,15.22,5.23,20.28,4.29,20.64Z" fill="#f4bc1f"/>
    </g>
  </g>
</svg>