<?xml version="1.0" encoding="UTF-8"?>
<svg id="a" data-name="图层 1" xmlns="http://www.w3.org/2000/svg" width="100mm" height="100mm" viewBox="0 0 283.46 283.46">
  <path d="M141.83,232.54c1.5,0,2.85-20.05,2.85-36.64,0-16.6-1.36-36.62-2.85-36.62-1.48,0-3.05,19.41-3.06,36.44-.01,17.27,1.58,36.83,3.06,36.83Z" fill="#fed925"/>
  <path d="M108.87,226.4c1.4,.54,9.88-17.66,15.84-33.13,5.97-15.48,11.91-34.64,10.51-35.19-1.37-.54-9.83,16.99-15.97,32.86-6.22,16.1-11.78,34.92-10.39,35.45Z" fill="#fed925"/>
  <path d="M80.35,208.71c1.11,1.01,15.56-12.89,26.69-25.15,11.14-12.27,23.57-27.98,22.46-29-1.09-1-15.28,12.28-26.71,24.85-11.6,12.75-23.55,28.29-22.45,29.29Z" fill="#fed925"/>
  <path d="M60.13,181.88c.67,1.35,19.15-6.37,33.94-13.77,14.8-7.4,32.04-17.54,31.38-18.89-.65-1.33-18.66,5.91-33.85,13.49-15.4,7.69-32.13,17.84-31.47,19.17Z" fill="#fed925"/>
  <path d="M50.91,149.52c.14,1.5,20.15,1,36.6-.53,16.46-1.53,36.19-4.73,36.05-6.23-.13-1.48-19.53-1.26-36.42,.3-17.13,1.58-36.38,4.98-36.24,6.46Z" fill="#fed925"/>
  <path d="M53.97,116c-.4,1.45,18.43,8.24,34.32,12.78,15.9,4.54,35.45,8.71,35.86,7.27,.41-1.42-17.75-8.26-34.06-12.93-16.54-4.74-35.72-8.55-36.12-7.12Z" fill="#fed925"/>
  <path d="M68.87,85.86c-.9,1.21,14.22,14.37,27.4,24.37,13.19,10.01,29.92,20.98,30.83,19.78,.89-1.18-13.58-14.14-27.11-24.41-13.72-10.42-30.23-20.93-31.12-19.74Z" fill="#fed925"/>
  <path d="M93.62,63.16c-1.27,.8,8.09,18.56,16.78,32.66,8.7,14.12,20.35,30.42,21.63,29.63,1.26-.78-7.58-18.11-16.5-32.6-9.04-14.69-20.66-30.48-21.91-29.69Z" fill="#fed925"/>
  <path d="M124.86,50.96c-1.47,.28,.86,20.24,3.9,36.54,3.04,16.32,8.03,35.74,9.51,35.47,1.45-.27-.55-19.64-3.66-36.38-3.15-16.98-8.29-35.92-9.75-35.64Z" fill="#fed925"/>
  <path d="M158.38,50.92c-1.48-.27-6.48,19.19-9.51,35.49-3.04,16.32-5.37,36.24-3.9,36.53,1.45,.28,6.55-18.51,9.68-35.25,3.17-16.97,5.19-36.5,3.73-36.77Z" fill="#fed925"/>
  <path d="M189.65,63.04c-1.28-.79-12.94,15.54-21.64,29.64-8.7,14.12-18.05,31.85-16.77,32.65,1.25,.79,12.77-14.89,21.71-29.36,9.06-14.68,17.97-32.15,16.7-32.93Z" fill="#fed925"/>
  <path d="M214.44,85.69c-.91-1.2-17.66,9.8-30.84,19.79-13.19,10.01-28.28,23.15-27.39,24.36,.89,1.19,17.26-9.25,30.8-19.5,13.73-10.4,28.32-23.46,27.42-24.65Z" fill="#fed925"/>
  <path d="M229.42,115.8c-.42-1.45-19.99,2.73-35.88,7.27-15.9,4.54-34.7,11.33-34.3,12.78,.4,1.43,19.42-2.36,35.74-7.01,16.55-4.71,34.85-11.61,34.44-13.04Z" fill="#fed925"/>
  <path d="M232.55,149.31c.13-1.5-19.62-4.7-36.07-6.23-16.46-1.53-36.44-2.02-36.58-.53-.14,1.48,18.96,4.84,35.85,6.42,17.12,1.61,36.67,1.82,36.8,.33Z" fill="#fed925"/>
  <path d="M223.41,181.69c.66-1.35-16.61-11.5-31.39-18.9-14.8-7.4-33.25-15.1-33.92-13.76-.66,1.32,15.94,11.39,31.12,18.99,15.39,7.71,33.54,15,34.2,13.66Z" fill="#fed925"/>
  <path d="M203.25,208.57c1.1-1.02-11.35-16.75-22.47-29.01-11.14-12.27-25.57-26.14-26.68-25.13-1.09,.99,10.77,16.41,22.18,29,11.58,12.77,25.88,26.15,26.97,25.14Z" fill="#fed925"/>
  <path d="M174.77,226.32c1.4-.55-4.55-19.74-10.52-35.2-5.97-15.48-14.44-33.65-15.84-33.11-1.38,.53,4.14,19.2,10.25,35.09,6.2,16.11,14.73,33.77,16.11,33.23Z" fill="#fed925"/>
</svg>