<?xml version="1.0" encoding="UTF-8"?>
<svg id="a" data-name="图层 1" xmlns="http://www.w3.org/2000/svg" width="100mm" height="100mm" viewBox="0 0 283.46 283.46">
  <g id="b" data-name="&amp;lt;径向重复&amp;gt;">
    <path d="M141.67,124.65c-2.04,0-2.48-10.83-6.82-42.07-.39-2.83-7.96-57.14,1.03-76.18C136.69,4.69,138.9,0,141.86,0c2.84,0,4.94,4.36,5.7,5.94,9.17,18.97,1.07,76.41,1.07,76.41-4.44,31.47-4.92,42.3-6.96,42.3Z" fill="#faf5ca"/>
  </g>
  <g id="c" data-name="&amp;lt;径向重复&amp;gt;">
    <path d="M148.25,125.86c-1.9-.74,1.58-11,8.77-41.7.65-2.78,13.14-56.17,28.37-70.66,1.37-1.3,5.13-4.88,7.88-3.8,2.64,1.04,3.04,5.86,3.18,7.61,1.73,21.02-26.49,71.64-26.49,71.64-15.46,27.73-19.8,37.66-21.71,36.92Z" fill="#faf5ca"/>
  </g>
  <g id="d" data-name="&amp;lt;径向重复&amp;gt;">
    <path d="M153.94,129.38c-1.51-1.39,5.43-9.68,23.18-35.7,1.61-2.36,32.46-47.61,51.87-55.6,1.74-.72,6.54-2.69,8.71-.69,2.09,1.93.72,6.57.23,8.25-5.95,20.22-50.47,57.19-50.47,57.19-24.39,20.25-32.01,27.94-33.52,26.55Z" fill="#faf5ca"/>
  </g>
  <g id="e" data-name="&amp;lt;径向重复&amp;gt;">
    <path d="M157.98,134.73c-.91-1.84,8.55-7.05,34.46-24.88,2.35-1.62,47.39-32.62,68.37-33.03,1.88-.04,7.06-.14,8.37,2.52,1.26,2.55-1.69,6.39-2.75,7.78-12.82,16.7-67.64,35.02-67.64,35.02-30.03,10.04-39.9,14.44-40.81,12.6Z" fill="#faf5ca"/>
  </g>
  <g id="f" data-name="&amp;lt;径向重复&amp;gt;">
    <path d="M159.83,141.18c-.19-2.04,10.51-3.48,41.08-10.7,2.77-.66,55.93-13.23,75.64-6,1.77.65,6.64,2.43,6.9,5.39.25,2.84-3.87,5.34-5.36,6.25-17.97,10.92-75.67,8.12-75.67,8.12-31.62-1.53-42.4-1.01-42.59-3.06Z" fill="#faf5ca"/>
  </g>
  <g id="g" data-name="&amp;lt;径向重复&amp;gt;">
    <path d="M159.23,147.87c.56-1.97,11.05.57,42.16,4.92,2.82.39,56.91,7.95,72.69,21.84,1.42,1.25,5.31,4.68,4.49,7.53-.79,2.74-5.53,3.58-7.25,3.88-20.68,3.67-73.48-19.88-73.48-19.88-28.93-12.9-39.17-16.32-38.61-18.3Z" fill="#faf5ca"/>
  </g>
  <g id="h" data-name="&amp;lt;径向重复&amp;gt;">
    <path d="M156.26,153.88c1.23-1.64,10.1,4.54,37.54,19.88,2.49,1.39,50.21,28.06,59.92,46.73.87,1.68,3.27,6.29,1.48,8.65-1.72,2.27-6.45,1.33-8.16.99-20.6-4.08-61.37-45.19-61.37-45.19-22.34-22.52-30.66-29.43-29.42-31.07Z" fill="#faf5ca"/>
  </g>
  <g id="i" data-name="&amp;lt;径向重复&amp;gt;">
    <path d="M151.34,158.42c1.74-1.08,7.78,7.9,27.86,32.16,1.82,2.2,36.72,44.38,39.06,65.31.21,1.88.79,7.05-1.73,8.6-2.42,1.49-6.49-1.1-7.96-2.03-17.74-11.28-40.97-64.4-40.97-64.4-12.73-29.1-18-38.56-16.26-39.64Z" fill="#faf5ca"/>
  </g>
  <g id="j" data-name="&amp;lt;径向重复&amp;gt;">
    <path d="M145.11,160.86c2.01-.37,4.42,10.19,14.41,40.09.91,2.71,18.28,54.7,12.93,75.07-.48,1.83-1.8,6.86-4.71,7.39-2.79.51-5.66-3.38-6.69-4.79-12.49-16.96-15.04-74.91-15.04-74.91-1.4-31.75-2.91-42.49-.9-42.86Z" fill="#faf5ca"/>
  </g>
  <g id="k" data-name="&amp;lt;径向重复&amp;gt;">
    <path d="M138.42,160.88c2.01.38.46,11.1-.99,42.61-.13,2.86-2.64,57.64-14.95,74.69-1.1,1.53-4.15,5.74-7.05,5.19-2.79-.53-4.06-5.2-4.52-6.89-5.54-20.34,12.93-75.31,12.93-75.31,10.12-30.11,12.57-40.67,14.58-40.29Z" fill="#faf5ca"/>
  </g>
  <g id="l" data-name="&amp;lt;径向重复&amp;gt;">
    <path d="M132.18,158.47c1.74,1.08-3.57,10.52-16.25,39.37-1.15,2.62-23.19,52.79-40.82,64.23-1.58,1.03-5.93,3.85-8.44,2.28-2.41-1.51-1.91-6.32-1.74-8.07,2.15-20.98,39.15-65.53,39.15-65.53,20.27-24.41,26.36-33.37,28.09-32.28Z" fill="#faf5ca"/>
  </g>
  <g id="m" data-name="&amp;lt;径向重复&amp;gt;">
    <path d="M127.23,153.96c1.23,1.64-7.11,8.51-29.32,30.82-2.01,2.02-40.62,40.81-61.17,45.08-1.84.38-6.92,1.44-8.69-.93-1.7-2.28.49-6.59,1.28-8.15,9.55-18.78,60.08-46.91,60.08-46.91,27.68-15.41,36.58-21.55,37.81-19.91Z" fill="#faf5ca"/>
  </g>
  <g id="n" data-name="&amp;lt;径向重复&amp;gt;">
    <path d="M124.23,147.96c.56,1.98-9.69,5.36-38.43,18.1-2.61,1.16-52.56,23.32-73.25,19.85-1.86-.31-6.97-1.17-7.77-4.02-.77-2.74,2.83-5.97,4.13-7.14,15.66-14.05,72.9-21.95,72.9-21.95,31.36-4.33,41.87-6.83,42.42-4.85Z" fill="#faf5ca"/>
  </g>
  <g id="o" data-name="&amp;lt;径向重复&amp;gt;">
    <path d="M123.6,141.27c-.19,2.04-10.97,1.48-42.34,2.94-2.85.13-57.4,2.68-75.45-8.06-1.62-.96-6.08-3.62-5.8-6.57.27-2.84,4.78-4.54,6.42-5.16,19.66-7.42,75.87,5.98,75.87,5.98,30.8,7.34,41.49,8.82,41.3,10.86Z" fill="#faf5ca"/>
  </g>
  <g id="p" data-name="&amp;lt;径向重复&amp;gt;">
    <path d="M125.41,134.81c-.91,1.84-10.76-2.6-40.54-12.62-2.7-.91-54.49-18.32-67.46-34.88-1.16-1.49-4.37-5.58-3.04-8.23,1.27-2.55,6.09-2.5,7.84-2.48,21,.21,68.6,33.09,68.6,33.09,26.08,18.02,35.52,23.27,34.61,25.11Z" fill="#faf5ca"/>
  </g>
  <g id="q" data-name="&amp;lt;径向重复&amp;gt;">
    <path d="M129.43,129.44c-1.51,1.38-9.1-6.32-33.27-26.47-2.19-1.83-44.22-36.85-50.35-56.99-.55-1.81-2.07-6.78.12-8.77,2.1-1.91,6.58-.12,8.2.53,19.51,7.82,52.06,55.74,52.06,55.74,17.83,26.26,24.75,34.59,23.24,35.97Z" fill="#faf5ca"/>
  </g>
  <g id="r" data-name="&amp;lt;径向重复&amp;gt;">
    <path d="M135.11,125.9c-1.91.74-6.21-9.2-21.5-36.75-1.39-2.5-27.98-50.4-26.45-71.41.14-1.89.51-7.07,3.27-8.14,2.65-1.02,6.18,2.28,7.46,3.47,15.38,14.36,28.49,70.86,28.49,70.86,7.18,30.95,10.63,41.23,8.73,41.97Z" fill="#faf5ca"/>
  </g>
</svg>