<?xml version="1.0" encoding="UTF-8"?>
<svg id="a" data-name="图层 1" xmlns="http://www.w3.org/2000/svg" width="100mm" height="100mm" viewBox="0 0 283.46 283.46">
  <g id="b" data-name="&amp;lt;径向重复&amp;gt;">
    <path d="M146.92,70.96c-1.67,0-3.18,17.31-3.18,31.62,0,14.33,1.51,31.6,3.18,31.61,1.65,0,3.4-16.75,3.42-31.44,.01-14.9-1.76-31.79-3.42-31.78Z" fill="#fed925"/>
  </g>
  <g id="c" data-name="&amp;lt;径向重复&amp;gt;">
    <path d="M174.02,75.99c-1.56-.6-9.22,14.99-14.39,28.34-5.18,13.36-10.01,30.01-8.45,30.62,1.53,.6,9.22-14.39,14.55-28.09,5.4-13.89,9.84-30.28,8.29-30.87Z" fill="#fed925"/>
  </g>
  <g id="d" data-name="&amp;lt;径向重复&amp;gt;">
    <path d="M197.48,90.46c-1.24-1.12-14.01,10.64-23.66,21.22-9.65,10.59-20.17,24.37-18.94,25.5,1.21,1.11,13.8-10.08,23.71-20.94,10.05-11,20.11-24.68,18.89-25.79Z" fill="#fed925"/>
  </g>
  <g id="e" data-name="&amp;lt;径向重复&amp;gt;">
    <path d="M214.13,112.44c-.75-1.5-16.91,4.86-29.72,11.25-12.83,6.39-27.61,15.44-26.87,16.94,.73,1.48,16.51-4.42,29.67-10.96,13.35-6.63,27.67-15.75,26.93-17.23Z" fill="#fed925"/>
  </g>
  <g id="f" data-name="&amp;lt;径向重复&amp;gt;">
    <path d="M221.71,138.94c-.16-1.67-17.53-1.57-31.78-.25-14.27,1.32-31.33,4.42-31.18,6.09,.15,1.64,16.99,1.84,31.63,.5,14.84-1.36,31.49-4.69,31.33-6.33Z" fill="#fed925"/>
  </g>
  <g id="g" data-name="&amp;lt;径向重复&amp;gt;">
    <path d="M219.21,166.39c.45-1.61-15.77-7.8-29.54-11.72-13.78-3.92-30.81-7.19-31.27-5.59-.46,1.58,15.18,7.86,29.31,11.89,14.33,4.09,31.06,7,31.5,5.41Z" fill="#fed925"/>
  </g>
  <g id="h" data-name="&amp;lt;径向重复&amp;gt;">
    <path d="M206.97,191.09c1-1.34-11.89-12.97-23.32-21.6-11.43-8.63-26.13-17.84-27.14-16.51-1,1.31,11.31,12.81,23.03,21.68,11.89,8.99,26.43,17.75,27.42,16.43Z" fill="#fed925"/>
  </g>
  <g id="i" data-name="&amp;lt;径向重复&amp;gt;">
    <path d="M186.62,209.69c1.42-.89-6.4-16.39-13.94-28.56-7.54-12.18-17.92-26.07-19.34-25.2-1.4,.86,5.92,16.03,13.65,28.53,7.83,12.68,18.23,26.1,19.64,25.22Z" fill="#fed925"/>
  </g>
  <g id="j" data-name="&amp;lt;径向重复&amp;gt;">
    <path d="M160.93,219.69c1.64-.31-.05-17.6-2.68-31.67-2.63-14.08-7.29-30.78-8.94-30.48-1.62,.3-.27,17.09,2.42,31.54,2.73,14.65,7.57,30.92,9.2,30.61Z" fill="#fed925"/>
  </g>
  <g id="k" data-name="&amp;lt;径向重复&amp;gt;">
    <path d="M133.37,219.73c1.65,.3,6.31-16.43,8.94-30.5,2.63-14.08,4.32-31.34,2.68-31.65-1.62-.31-6.42,15.84-9.14,30.28-2.75,14.65-4.11,31.57-2.48,31.87Z" fill="#fed925"/>
  </g>
  <g id="l" data-name="&amp;lt;径向重复&amp;gt;">
    <path d="M107.65,209.81c1.43,.88,11.82-13.04,19.35-25.21,7.54-12.18,15.35-27.66,13.93-28.55-1.4-.87-11.71,12.45-19.46,24.94-7.86,12.66-15.23,27.95-13.83,28.82Z" fill="#fed925"/>
  </g>
  <g id="m" data-name="&amp;lt;径向重复&amp;gt;">
    <path d="M87.25,191.27c1.01,1.33,15.73-7.89,27.15-16.52,11.43-8.63,24.31-20.25,23.3-21.59-.99-1.32-15.42,7.38-27.15,16.22-11.9,8.97-24.3,20.56-23.3,21.88Z" fill="#fed925"/>
  </g>
  <g id="n" data-name="&amp;lt;径向重复&amp;gt;">
    <path d="M74.92,166.62c.46,1.61,17.52-1.67,31.28-5.59,13.78-3.92,29.98-10.1,29.53-11.71-.45-1.58-17.04,1.31-31.18,5.32-14.34,4.07-30.09,10.39-29.63,11.98Z" fill="#fed925"/>
  </g>
  <g id="o" data-name="&amp;lt;径向重复&amp;gt;">
    <path d="M72.33,139.17c-.15,1.67,16.94,4.77,31.19,6.09,14.27,1.32,31.6,1.41,31.76-.25,.16-1.64-16.36-4.93-30.99-6.3-14.84-1.39-31.81-1.18-31.96,.47Z" fill="#fed925"/>
  </g>
  <g id="p" data-name="&amp;lt;径向重复&amp;gt;">
    <path d="M79.84,112.65c-.74,1.5,14.07,10.56,26.89,16.94,12.83,6.39,28.96,12.73,29.71,11.24,.74-1.47-13.47-10.51-26.62-17.07-13.33-6.65-29.24-12.59-29.97-11.11Z" fill="#fed925"/>
  </g>
  <g id="q" data-name="&amp;lt;径向重复&amp;gt;">
    <path d="M96.41,90.62c-1.23,1.13,9.31,14.93,18.95,25.51,9.65,10.59,22.41,22.33,23.64,21.21,1.22-1.11-8.77-14.67-18.66-25.54-10.03-11.02-22.72-22.3-23.94-21.19Z" fill="#fed925"/>
  </g>
  <g id="r" data-name="&amp;lt;径向重复&amp;gt;">
    <path d="M119.83,76.07c-1.56,.61,3.28,17.29,8.45,30.64,5.18,13.36,12.83,28.92,14.39,28.32,1.54-.59-2.88-16.85-8.17-30.56-5.37-13.9-13.13-29-14.67-28.4Z" fill="#fed925"/>
  </g>
</svg>