<?xml version="1.0" encoding="UTF-8"?>
<svg id="a" data-name="图层 1" xmlns="http://www.w3.org/2000/svg" width="100mm" height="100mm" viewBox="0 0 283.46 283.46">
  <g id="b" data-name="&amp;lt;径向重复&amp;gt;">
    <path d="M141.6,46.37c-2.15,0-4.08,22.19-4.08,40.54,0,18.37,1.94,40.51,4.08,40.52,2.11,0,4.36-21.47,4.38-40.31.02-19.11-2.26-40.75-4.38-40.75Z" fill="#ffd824"/>
  </g>
  <g id="c" data-name="&amp;lt;径向重复&amp;gt;">
    <path d="M176.35,52.81c-2-.77-11.82,19.22-18.45,36.33-6.64,17.13-12.83,38.48-10.83,39.26,1.97.77,11.83-18.45,18.65-36.01,6.92-17.81,12.61-38.82,10.63-39.58Z" fill="#ffd824"/>
  </g>
  <g id="d" data-name="&amp;lt;径向重复&amp;gt;">
    <path d="M206.42,71.37c-1.59-1.44-17.96,13.65-30.33,27.21-12.38,13.57-25.86,31.25-24.28,32.69,1.56,1.43,17.69-12.93,30.4-26.84,12.88-14.11,25.78-31.64,24.21-33.06Z" fill="#ffd824"/>
  </g>
  <g id="e" data-name="&amp;lt;径向重复&amp;gt;">
    <path d="M227.77,99.54c-.96-1.92-21.68,6.24-38.11,14.42-16.44,8.19-35.4,19.79-34.45,21.71.94,1.89,21.17-5.66,38.04-14.05,17.11-8.5,35.47-20.19,34.52-22.08Z" fill="#ffd824"/>
  </g>
  <g id="f" data-name="&amp;lt;径向重复&amp;gt;">
    <path d="M237.49,133.51c-.2-2.14-22.47-2.02-40.74-.32-18.29,1.69-40.16,5.67-39.97,7.8.19,2.1,21.78,2.36,40.55.64,19.03-1.75,40.37-6.01,40.17-8.12Z" fill="#ffd824"/>
  </g>
  <g id="g" data-name="&amp;lt;径向重复&amp;gt;">
    <path d="M234.28,168.71c.58-2.07-20.22-10-37.88-15.02-17.67-5.03-39.5-9.22-40.09-7.16-.58,2.03,19.46,10.07,37.58,15.25,18.37,5.25,39.82,8.98,40.39,6.94Z" fill="#ffd824"/>
  </g>
  <g id="h" data-name="&amp;lt;径向重复&amp;gt;">
    <path d="M218.58,200.37c1.29-1.72-15.25-16.63-29.89-27.69-14.66-11.07-33.5-22.87-34.79-21.16-1.28,1.68,14.5,16.42,29.53,27.79,15.24,11.53,33.88,22.76,35.16,21.06Z" fill="#ffd824"/>
  </g>
  <g id="i" data-name="&amp;lt;径向重复&amp;gt;">
    <path d="M192.5,224.22c1.82-1.14-8.21-21.01-17.87-36.62-9.67-15.62-22.98-33.42-24.8-32.3-1.8,1.11,7.59,20.55,17.5,36.58,10.04,16.25,23.38,33.46,25.17,32.34Z" fill="#ffd824"/>
  </g>
  <g id="j" data-name="&amp;lt;径向重复&amp;gt;">
    <path d="M159.56,237.04c2.11-.4-.07-22.56-3.44-40.6-3.38-18.06-9.35-39.47-11.46-39.08-2.08.38-.34,21.91,3.1,40.43,3.49,18.78,9.71,39.64,11.79,39.25Z" fill="#ffd824"/>
  </g>
  <g id="k" data-name="&amp;lt;径向重复&amp;gt;">
    <path d="M124.22,237.09c2.11.39,8.09-21.06,11.46-39.1,3.38-18.06,5.54-40.18,3.43-40.58-2.07-.39-8.23,20.3-11.71,38.82-3.53,18.78-5.27,40.47-3.18,40.86Z" fill="#ffd824"/>
  </g>
  <g id="l" data-name="&amp;lt;径向重复&amp;gt;">
    <path d="M91.25,224.38c1.83,1.12,15.15-16.72,24.81-32.32,9.67-15.62,19.68-35.47,17.86-36.6-1.79-1.12-15.01,15.96-24.95,31.97-10.07,16.24-19.53,35.84-17.73,36.95Z" fill="#ffd824"/>
  </g>
  <g id="m" data-name="&amp;lt;径向重复&amp;gt;">
    <path d="M65.09,200.61c1.3,1.71,20.17-10.11,34.81-21.17,14.66-11.07,31.16-25.96,29.88-27.68-1.27-1.69-19.76,9.46-34.81,20.8-15.26,11.5-31.16,26.36-29.88,28.05Z" fill="#ffd824"/>
  </g>
  <g id="n" data-name="&amp;lt;径向重复&amp;gt;">
    <path d="M49.29,169c.59,2.06,22.46-2.15,40.11-7.17,17.67-5.03,38.44-12.95,37.86-15.01-.57-2.03-21.85,1.68-39.97,6.82-18.38,5.21-38.58,13.33-37.99,15.36Z" fill="#ffd824"/>
  </g>
  <g id="o" data-name="&amp;lt;径向重复&amp;gt;">
    <path d="M45.97,133.81c-.19,2.14,21.72,6.11,39.99,7.8,18.29,1.69,40.52,1.81,40.72-.33.2-2.1-20.98-6.33-39.74-8.08-19.02-1.78-40.79-1.51-40.98.6Z" fill="#ffd824"/>
  </g>
  <g id="p" data-name="&amp;lt;径向重复&amp;gt;">
    <path d="M55.59,99.8c-.95,1.92,18.04,13.54,34.47,21.72,16.44,8.19,37.13,16.32,38.09,14.41.95-1.89-17.28-13.48-34.13-21.89-17.1-8.53-37.49-16.14-38.43-14.24Z" fill="#ffd824"/>
  </g>
  <g id="q" data-name="&amp;lt;径向重复&amp;gt;">
    <path d="M76.85,71.57c-1.58,1.45,11.93,19.15,24.3,32.71,12.38,13.57,28.73,28.63,30.31,27.19,1.56-1.42-11.24-18.81-23.92-32.74-12.86-14.13-29.13-28.59-30.69-27.16Z" fill="#ffd824"/>
  </g>
  <g id="r" data-name="&amp;lt;径向重复&amp;gt;">
    <path d="M106.87,52.91c-2,.78,4.21,22.16,10.84,39.28,6.64,17.13,16.44,37.08,18.44,36.31,1.97-.76-3.69-21.6-10.48-39.17-6.89-17.82-16.83-37.18-18.8-36.41Z" fill="#ffd824"/>
  </g>
</svg>