<?xml version="1.0" encoding="UTF-8"?>
<svg id="a" data-name="图层 1" xmlns="http://www.w3.org/2000/svg" width="100mm" height="100mm" viewBox="0 0 283.46 283.46">
  <g id="b" data-name="&amp;lt;径向重复&amp;gt;">
    <path d="M141.69,116c-1.68,0-2.04-5.97-5.61-23.2-.32-1.56-6.54-31.51,.85-42.01,.66-.94,2.49-3.54,4.92-3.53,2.33,0,4.07,2.41,4.69,3.28,7.54,10.46,.88,42.14,.88,42.14-3.65,17.35-4.04,23.33-5.72,23.33Z" fill="#fbf6cb"/>
  </g>
  <g id="c" data-name="&amp;lt;径向重复&amp;gt;">
    <path d="M151.26,117.78c-1.57-.61,.26-6.3,3.15-23.66,.26-1.57,5.28-31.75,15.97-38.87,.96-.64,3.6-2.4,5.86-1.52,2.17,.85,2.92,3.71,3.19,4.75,3.25,12.48-14.4,39.61-14.4,39.61-9.67,14.86-12.2,20.29-13.76,19.68Z" fill="#fbf6cb"/>
  </g>
  <g id="d" data-name="&amp;lt;径向重复&amp;gt;">
    <path d="M159.55,122.89c-1.24-1.13,2.52-5.79,11.48-20.92,.81-1.37,16.39-27.7,28.93-30.48,1.12-.25,4.22-.94,6.01,.7,1.72,1.58,1.38,4.52,1.26,5.58-1.47,12.81-27.74,31.73-27.74,31.73-14.39,10.37-18.7,14.52-19.95,13.38Z" fill="#fbf6cb"/>
  </g>
  <g id="e" data-name="&amp;lt;径向重复&amp;gt;">
    <path d="M165.43,130.66c-.75-1.51,4.44-4.49,18.26-15.36,1.25-.99,25.29-19.9,37.98-17.97,1.14,.17,4.27,.65,5.35,2.83,1.04,2.09-.34,4.71-.84,5.66-6,11.42-37.33,19.57-37.33,19.57-17.16,4.47-22.68,6.78-23.43,5.27Z" fill="#fbf6cb"/>
  </g>
  <g id="f" data-name="&amp;lt;径向重复&amp;gt;">
    <path d="M168.11,140.02c-.15-1.67,5.76-2.58,22.58-7.73,1.53-.47,30.77-9.42,41.91-3.03,1,.57,3.75,2.15,3.97,4.57,.21,2.32-2.02,4.27-2.83,4.97-9.72,8.48-41.88,4.77-41.88,4.77-17.62-2.03-23.6-1.87-23.76-3.55Z" fill="#fbf6cb"/>
  </g>
  <g id="g" data-name="&amp;lt;径向重复&amp;gt;">
    <path d="M167.22,149.72c.46-1.62,6.3-.33,23.85,.95,1.59,.12,32.1,2.33,40.18,12.31,.72,.9,2.72,3.36,2.05,5.7-.64,2.24-3.43,3.25-4.43,3.62-12.13,4.39-40.77-10.68-40.77-10.68-15.69-8.26-21.33-10.27-20.87-11.89Z" fill="#fbf6cb"/>
  </g>
  <g id="h" data-name="&amp;lt;径向重复&amp;gt;">
    <path d="M162.89,158.45c1.01-1.34,5.99,1.97,21.89,9.5,1.44,.68,29.09,13.77,33.02,25.99,.35,1.1,1.32,4.12-.15,6.05-1.41,1.86-4.37,1.79-5.44,1.77-12.89-.29-34.16-24.69-34.16-24.69-11.65-13.37-16.18-17.28-15.16-18.63Z" fill="#fbf6cb"/>
  </g>
  <g id="i" data-name="&amp;lt;径向重复&amp;gt;">
    <path d="M155.71,165.02c1.43-.88,4.88,4,16.98,16.77,1.1,1.16,22.15,23.35,21.4,36.16-.07,1.15-.25,4.32-2.32,5.59-1.99,1.22-4.72,.09-5.71-.32-11.92-4.92-22.93-35.36-22.93-35.36-6.03-16.68-8.84-21.96-7.41-22.85Z" fill="#fbf6cb"/>
  </g>
  <g id="j" data-name="&amp;lt;径向重复&amp;gt;">
    <path d="M146.63,168.55c1.65-.31,3.1,5.49,9.78,21.77,.61,1.48,12.22,29.77,6.89,41.45-.48,1.05-1.8,3.93-4.18,4.37-2.29,.42-4.44-1.62-5.21-2.36-9.34-8.9-8.61-41.26-8.61-41.26,.4-17.73-.31-23.67,1.34-23.98Z" fill="#fbf6cb"/>
  </g>
  <g id="k" data-name="&amp;lt;径向重复&amp;gt;">
    <path d="M136.89,168.56c1.65,.31,.91,6.24,1.25,23.83,.03,1.6,.64,32.18-8.55,41.14-.82,.8-3.1,3.02-5.48,2.57-2.29-.43-3.55-3.11-4.01-4.08-5.49-11.67,6.88-41.58,6.88-41.58,6.78-16.39,8.26-22.19,9.91-21.88Z" fill="#fbf6cb"/>
  </g>
  <g id="l" data-name="&amp;lt;径向重复&amp;gt;">
    <path d="M127.8,165.06c1.43,.89-1.41,6.15-7.44,22.68-.55,1.5-11.03,30.24-22.84,35.27-1.06,.45-3.98,1.7-6.04,.41-1.98-1.23-2.19-4.19-2.26-5.26-.91-12.87,21.43-36.29,21.43-36.29,12.24-12.83,15.72-17.71,17.15-16.82Z" fill="#fbf6cb"/>
  </g>
  <g id="m" data-name="&amp;lt;径向重复&amp;gt;">
    <path d="M120.6,158.5c1.01,1.34-3.54,5.23-15.13,18.46-1.05,1.2-21.2,24.21-34.04,24.64-1.15,.04-4.32,.15-5.78-1.8-1.4-1.87-.53-4.69-.21-5.72,3.8-12.32,33.1-26.1,33.1-26.1,16.05-7.55,21.05-10.83,22.06-9.49Z" fill="#fbf6cb"/>
  </g>
  <g id="n" data-name="&amp;lt;径向重复&amp;gt;">
    <path d="M116.24,149.79c.46,1.62-5.19,3.59-20.78,11.75-1.41,.74-28.52,14.92-40.64,10.68-1.09-.38-4.08-1.43-4.74-3.76-.63-2.25,1.2-4.57,1.87-5.41,8-10.12,40.29-12.38,40.29-12.38,17.69-1.24,23.54-2.5,24-.88Z" fill="#fbf6cb"/>
  </g>
  <g id="o" data-name="&amp;lt;径向重复&amp;gt;">
    <path d="M115.33,140.1c-.16,1.67-6.13,1.48-23.62,3.45-1.59,.18-31.98,3.61-41.75-4.72-.88-.75-3.29-2.8-3.06-5.22,.22-2.32,2.77-3.83,3.69-4.37,11.11-6.55,42.04,3.01,42.04,3.01,16.94,5.24,22.86,6.18,22.7,7.85Z" fill="#fbf6cb"/>
  </g>
  <g id="p" data-name="&amp;lt;径向重复&amp;gt;">
    <path d="M117.98,130.72c-.75,1.5-6.25-.84-23.27-5.32-1.54-.41-31.12-8.19-37.23-19.48-.55-1.01-2.06-3.8-.97-5.97,1.04-2.09,3.97-2.57,5.02-2.74,12.73-2.09,38.11,17.99,38.11,17.99,13.91,11,19.08,14.02,18.33,15.52Z" fill="#fbf6cb"/>
  </g>
  <g id="q" data-name="&amp;lt;径向重复&amp;gt;">
    <path d="M123.84,122.94c-1.24,1.13-5.53-3.04-19.78-13.36-1.29-.94-26.06-18.88-27.68-31.62-.14-1.14-.54-4.29,1.26-5.92,1.73-1.57,4.63-.96,5.67-.74,12.62,2.65,29.04,30.55,29.04,30.55,8.99,15.28,12.73,19.96,11.48,21.1Z" fill="#fbf6cb"/>
  </g>
  <g id="r" data-name="&amp;lt;径向重复&amp;gt;">
    <path d="M132.11,117.81c-1.57,.61-4.06-4.83-13.61-19.6-.87-1.34-17.48-27.02-14.39-39.48,.28-1.12,1.04-4.2,3.31-5.07,2.18-.84,4.66,.78,5.56,1.36,10.81,7.03,16.04,38.97,16.04,38.97,2.87,17.5,4.66,23.21,3.09,23.82Z" fill="#fbf6cb"/>
  </g>
</svg>