<?xml version="1.0" encoding="UTF-8"?>
<svg id="a" data-name="图层 1" xmlns="http://www.w3.org/2000/svg" width="100mm" height="100mm" viewBox="0 0 283.46 283.46">
  <g id="b" data-name="&amp;lt;径向重复&amp;gt;">
    <path d="M141.67,108.75c-2.16,0-2.61-7.66-7.19-29.74-.42-2-8.39-40.4,1.09-53.86.85-1.21,3.19-4.53,6.3-4.53,2.99,0,5.21,3.09,6.01,4.2,9.67,13.41,1.13,54.02,1.13,54.02-4.68,22.25-5.18,29.91-7.34,29.91Z" fill="#faf5ca"/>
  </g>
  <g id="c" data-name="&amp;lt;径向重复&amp;gt;">
    <path d="M153.95,111.02c-2.01-.78.33-8.08,4.04-30.33.34-2.02,6.77-40.7,20.47-49.83,1.23-.82,4.61-3.07,7.51-1.94,2.79,1.09,3.75,4.76,4.09,6.09,4.17,16-18.46,50.78-18.46,50.78-12.4,19.06-15.64,26.02-17.65,25.23Z" fill="#faf5ca"/>
  </g>
  <g id="d" data-name="&amp;lt;径向重复&amp;gt;">
    <path d="M164.57,117.58c-1.59-1.45,3.23-7.42,14.72-26.83,1.04-1.76,21.02-35.51,37.09-39.07,1.44-.32,5.41-1.2,7.71.9,2.21,2.02,1.77,5.79,1.62,7.16-1.89,16.43-35.56,40.68-35.56,40.68-18.45,13.29-23.98,18.61-25.57,17.16Z" fill="#faf5ca"/>
  </g>
  <g id="e" data-name="&amp;lt;径向重复&amp;gt;">
    <path d="M172.11,127.54c-.96-1.93,5.69-5.75,23.42-19.7,1.61-1.26,32.43-25.52,48.7-23.04,1.46.22,5.48.83,6.86,3.63,1.33,2.68-.44,6.04-1.08,7.26-7.7,14.63-47.86,25.09-47.86,25.09-22,5.73-29.08,8.69-30.04,6.76Z" fill="#faf5ca"/>
  </g>
  <g id="f" data-name="&amp;lt;径向重复&amp;gt;">
    <path d="M175.55,139.54c-.2-2.15,7.38-3.31,28.95-9.91,1.96-.6,39.45-12.08,53.73-3.89,1.28.73,4.81,2.76,5.09,5.86.27,2.98-2.59,5.47-3.63,6.38-12.46,10.87-53.69,6.11-53.69,6.11-22.59-2.61-30.26-2.4-30.46-4.55Z" fill="#faf5ca"/>
  </g>
  <g id="g" data-name="&amp;lt;径向重复&amp;gt;">
    <path d="M174.41,151.97c.59-2.07,8.08-.42,30.57,1.22,2.04.15,41.15,2.99,51.51,15.78.93,1.15,3.49,4.31,2.63,7.3-.83,2.88-4.39,4.17-5.69,4.64-15.55,5.63-52.27-13.7-52.27-13.7-20.12-10.59-27.35-13.17-26.76-15.24Z" fill="#faf5ca"/>
  </g>
  <g id="h" data-name="&amp;lt;径向重复&amp;gt;">
    <path d="M168.86,163.16c1.3-1.72,7.68,2.53,28.07,12.18,1.85.88,37.29,17.65,42.33,33.32.45,1.41,1.69,5.28-.19,7.76-1.81,2.38-5.6,2.3-6.98,2.27-16.53-.37-43.79-31.65-43.79-31.65-14.94-17.14-20.74-22.16-19.44-23.88Z" fill="#faf5ca"/>
  </g>
  <g id="i" data-name="&amp;lt;径向重复&amp;gt;">
    <path d="M159.65,171.58c1.83-1.13,6.25,5.13,21.77,21.5,1.41,1.48,28.4,29.93,27.43,46.37-.09,1.47-.33,5.53-2.98,7.17-2.55,1.57-6.06.12-7.32-.4-15.28-6.31-29.4-45.34-29.4-45.34-7.73-21.38-11.34-28.16-9.5-29.29Z" fill="#faf5ca"/>
  </g>
  <g id="j" data-name="&amp;lt;径向重复&amp;gt;">
    <path d="M148.01,176.11c2.12-.39,3.98,7.04,12.54,27.91.78,1.89,15.67,38.17,8.83,53.14-.61,1.34-2.3,5.04-5.36,5.61-2.94.54-5.69-2.08-6.68-3.02-11.97-11.41-11.04-52.89-11.04-52.9.51-22.73-.4-30.35,1.72-30.75Z" fill="#faf5ca"/>
  </g>
  <g id="k" data-name="&amp;lt;径向重复&amp;gt;">
    <path d="M135.52,176.13c2.12.4,1.16,8,1.61,30.56.04,2.05.82,41.25-10.96,52.75-1.06,1.03-3.97,3.87-7.03,3.29-2.94-.56-4.56-3.99-5.14-5.23-7.04-14.96,8.82-53.31,8.82-53.31,8.69-21.01,10.59-28.45,12.71-28.05Z" fill="#faf5ca"/>
  </g>
  <g id="l" data-name="&amp;lt;径向重复&amp;gt;">
    <path d="M123.87,171.63c1.83,1.14-1.81,7.88-9.54,29.07-.7,1.92-14.14,38.76-29.28,45.22-1.36.58-5.1,2.17-7.74.53-2.54-1.58-2.81-5.37-2.9-6.74-1.16-16.49,27.48-46.53,27.48-46.53,15.69-16.45,20.15-22.7,21.98-21.56Z" fill="#faf5ca"/>
  </g>
  <g id="m" data-name="&amp;lt;径向重复&amp;gt;">
    <path d="M114.63,163.23c1.3,1.72-4.53,6.7-19.4,23.66-1.35,1.54-27.18,31.04-43.64,31.59-1.48.05-5.54.19-7.41-2.3-1.8-2.39-.68-6.02-.27-7.33,4.88-15.8,42.43-33.46,42.43-33.46,20.57-9.67,26.99-13.89,28.29-12.17Z" fill="#faf5ca"/>
  </g>
  <g id="n" data-name="&amp;lt;径向重复&amp;gt;">
    <path d="M109.05,152.07c.59,2.07-6.65,4.61-26.64,15.06-1.81.95-36.56,19.12-52.1,13.7-1.39-.49-5.23-1.83-6.08-4.82-.81-2.88,1.54-5.86,2.39-6.93,10.25-12.97,51.65-15.87,51.65-15.87,22.68-1.59,30.18-3.2,30.77-1.12Z" fill="#faf5ca"/>
  </g>
  <g id="o" data-name="&amp;lt;径向重复&amp;gt;">
    <path d="M107.88,139.63c-.2,2.15-7.86,1.9-30.28,4.42-2.03.23-41,4.62-53.53-6.05-1.12-.96-4.22-3.59-3.92-6.69.28-2.98,3.55-4.9,4.74-5.6,14.25-8.39,53.9,3.86,53.9,3.86,21.72,6.71,29.3,7.92,29.1,10.07Z" fill="#faf5ca"/>
  </g>
  <g id="p" data-name="&amp;lt;径向重复&amp;gt;">
    <path d="M111.28,127.62c-.96,1.93-8.02-1.07-29.83-6.82-1.98-.52-39.9-10.5-47.73-24.98-.7-1.3-2.64-4.88-1.24-7.66,1.34-2.68,5.09-3.29,6.44-3.51,16.32-2.68,48.86,23.07,48.86,23.07,17.83,14.11,24.46,17.97,23.5,19.9Z" fill="#faf5ca"/>
  </g>
  <g id="q" data-name="&amp;lt;径向重复&amp;gt;">
    <path d="M118.79,117.64c-1.59,1.45-7.09-3.9-25.35-17.13-1.66-1.2-33.42-24.2-35.48-40.54-.19-1.47-.7-5.5,1.61-7.59,2.22-2.01,5.93-1.23,7.27-.95,16.18,3.4,37.23,39.16,37.23,39.16,11.53,19.59,16.32,25.59,14.72,27.05Z" fill="#faf5ca"/>
  </g>
  <g id="r" data-name="&amp;lt;径向重复&amp;gt;">
    <path d="M129.4,111.06c-2.01.78-5.2-6.19-17.45-25.13-1.11-1.72-22.42-34.64-18.45-50.62.36-1.43,1.34-5.38,4.24-6.5,2.79-1.07,5.97.99,7.13,1.74,13.86,9.01,20.57,49.97,20.57,49.97,3.67,22.44,5.97,29.76,3.96,30.54Z" fill="#faf5ca"/>
  </g>
</svg>