<?xml version="1.0" encoding="UTF-8"?>
<svg id="a" data-name="图层 1" xmlns="http://www.w3.org/2000/svg" width="100mm" height="100mm" viewBox="0 0 283.46 283.46">
  <g id="b" data-name="&amp;lt;径向重复&amp;gt;">
    <g id="c" data-name="&amp;lt;径向重复&amp;gt;">
      <path d="M141.76,242.02c.85,0,1.03,3.5,2.83,13.59.16.92,3.29,18.45-.43,24.6-.33.55-1.25,2.07-2.48,2.07-1.17,0-2.05-1.41-2.36-1.92-3.8-6.13-.44-24.68-.44-24.68,1.84-10.16,2.04-13.66,2.88-13.66Z" fill="#f3bb1f"/>
    </g>
  </g>
  <g id="d" data-name="&amp;lt;径向重复&amp;gt;">
    <g id="e" data-name="&amp;lt;径向重复&amp;gt;">
      <path d="M105.1,235.17c.79.31-.31,3.63-2.27,13.69-.18.91-3.59,18.4-9.29,22.79-.51.39-1.92,1.48-3.06,1.03-1.09-.43-1.4-2.05-1.51-2.64-1.33-7.09,8.5-23.17,8.5-23.17,5.38-8.81,6.83-12,7.62-11.7Z" fill="#f3bb1f"/>
    </g>
  </g>
  <g id="f" data-name="&amp;lt;径向重复&amp;gt;">
    <g id="g" data-name="&amp;lt;径向重复&amp;gt;">
      <path d="M73.39,215.55c.62.57-1.6,3.28-7.06,11.94-.5.79-10,15.86-16.89,17.9-.62.18-2.32.69-3.22-.14-.87-.79-.56-2.42-.45-3.01,1.32-7.09,16.3-18.54,16.3-18.54,8.2-6.27,10.71-8.72,11.33-8.15Z" fill="#f3bb1f"/>
    </g>
  </g>
  <g id="h" data-name="&amp;lt;径向重复&amp;gt;">
    <g id="i" data-name="&amp;lt;径向重复&amp;gt;">
      <path d="M50.91,185.79c.38.76-2.67,2.48-10.9,8.58-.75.55-15.05,11.17-22.21,10.59-.64-.05-2.41-.2-2.95-1.29-.52-1.05.35-2.46.66-2.97,3.79-6.13,21.89-11.4,21.89-11.4,9.92-2.89,13.14-4.27,13.51-3.51Z" fill="#f3bb1f"/>
    </g>
  </g>
  <g id="j" data-name="&amp;lt;径向重复&amp;gt;">
    <g id="k" data-name="&amp;lt;径向重复&amp;gt;">
      <path d="M40.7,149.93c.08.84-3.39,1.34-13.27,4.07-.9.25-18.07,4.98-24.54,1.85-.58-.28-2.18-1.06-2.29-2.27-.11-1.17,1.21-2.17,1.69-2.53,5.75-4.35,24.53-2.72,24.53-2.72,10.29.89,13.79.77,13.87,1.61Z" fill="#f3bb1f"/>
    </g>
  </g>
  <g id="l" data-name="&amp;lt;径向重复&amp;gt;">
    <g id="m" data-name="&amp;lt;径向重复&amp;gt;">
      <path d="M44.13,112.79c-.23.81-3.64.03-13.84-1-.92-.09-18.65-1.88-23.55-7.14-.44-.47-1.65-1.77-1.31-2.95.32-1.13,1.92-1.58,2.49-1.75,6.93-1.98,23.86,6.33,23.86,6.33,9.27,4.55,12.58,5.7,12.35,6.51Z" fill="#f3bb1f"/>
    </g>
  </g>
  <g id="n" data-name="&amp;lt;径向重复&amp;gt;">
    <g id="o" data-name="&amp;lt;径向重复&amp;gt;">
      <path d="M60.75,79.41c-.51.67-3.41-1.29-12.54-5.93-.83-.42-16.71-8.49-19.38-15.17-.24-.6-.9-2.25-.16-3.22.71-.94,2.36-.78,2.95-.73,7.18.66,19.96,14.52,19.96,14.52,7,7.59,9.68,9.86,9.16,10.53Z" fill="#f3bb1f"/>
    </g>
  </g>
  <g id="p" data-name="&amp;lt;径向重复&amp;gt;">
    <g id="q" data-name="&amp;lt;径向重复&amp;gt;">
      <path d="M88.3,54.28c-.72.44-2.71-2.43-9.55-10.06-.62-.69-12.52-13.96-12.59-21.14,0-.64-.02-2.42,1.02-3.06,1-.62,2.48.12,3.02.39,6.45,3.21,13.37,20.75,13.37,20.75,3.79,9.61,5.46,12.69,4.74,13.13Z" fill="#f3bb1f"/>
    </g>
  </g>
  <g id="r" data-name="&amp;lt;径向重复&amp;gt;">
    <g id="s" data-name="&amp;lt;径向重复&amp;gt;">
      <path d="M123.07,40.8c-.83.15-1.65-3.25-5.27-12.84-.33-.87-6.63-17.53-4.1-24.26.23-.6.85-2.27,2.05-2.49,1.16-.21,2.27,1.01,2.67,1.45,4.86,5.32,4.97,24.18,4.97,24.18.06,10.33.51,13.8-.32,13.96Z" fill="#f3bb1f"/>
    </g>
  </g>
  <g id="t" data-name="&amp;lt;径向重复&amp;gt;">
    <g id="u" data-name="&amp;lt;径向重复&amp;gt;">
      <path d="M160.36,40.79c-.83-.16-.37-3.63-.28-13.87,0-.93.15-18.75,4.94-24.11.43-.48,1.61-1.8,2.81-1.58,1.15.22,1.75,1.76,1.97,2.32,2.61,6.72-4.1,24.34-4.1,24.34-3.67,9.65-4.51,13.06-5.34,12.9Z" fill="#f3bb1f"/>
    </g>
  </g>
  <g id="v" data-name="&amp;lt;径向重复&amp;gt;">
    <g id="w" data-name="&amp;lt;径向重复&amp;gt;">
      <path d="M195.14,54.26c-.72-.45.97-3.51,4.75-13.04.34-.86,6.91-17.42,13.31-20.69.57-.29,2.15-1.1,3.19-.45,1,.62,1,2.28,1,2.87,0,7.21-12.61,21.21-12.61,21.21-6.91,7.67-8.92,10.54-9.64,10.1Z" fill="#f3bb1f"/>
    </g>
  </g>
  <g id="x" data-name="&amp;lt;径向重复&amp;gt;">
    <g id="y" data-name="&amp;lt;径向重复&amp;gt;">
      <path d="M222.7,79.37c-.51-.68,2.17-2.93,9.14-10.44.63-.68,12.74-13.75,19.89-14.49.64-.07,2.41-.25,3.14.73.71.94.11,2.48-.11,3.04-2.6,6.72-19.43,15.23-19.43,15.23-9.22,4.66-12.13,6.61-12.64,5.93Z" fill="#f3bb1f"/>
    </g>
  </g>
  <g id="z" data-name="&amp;lt;径向重复&amp;gt;">
    <g id="aa" data-name="&amp;lt;径向重复&amp;gt;">
      <path d="M239.33,112.76c-.23-.81,3.08-1.94,12.29-6.44.84-.41,16.85-8.22,23.78-6.32.62.17,2.33.64,2.67,1.82.32,1.13-.8,2.35-1.2,2.8-4.85,5.33-23.61,7.18-23.61,7.18-10.28,1.01-13.7,1.78-13.93.97Z" fill="#f3bb1f"/>
    </g>
  </g>
  <g id="ab" data-name="&amp;lt;径向重复&amp;gt;">
    <g id="ac" data-name="&amp;lt;径向重复&amp;gt;">
      <path d="M242.78,149.89c.08-.84,3.58-.7,13.79-1.56.93-.08,18.68-1.58,24.46,2.69.52.38,1.95,1.44,1.83,2.66-.11,1.17-1.59,1.91-2.13,2.18-6.45,3.22-24.61-1.84-24.61-1.84-9.95-2.77-13.42-3.29-13.34-4.13Z" fill="#f3bb1f"/>
    </g>
  </g>
  <g id="ad" data-name="&amp;lt;径向重复&amp;gt;">
    <g id="ae" data-name="&amp;lt;径向重复&amp;gt;">
      <path d="M232.58,185.76c.38-.76,3.59.64,13.42,3.53.89.26,17.99,5.28,21.83,11.35.35.54,1.29,2.04.75,3.14-.53,1.05-2.17,1.2-2.77,1.26-7.18.67-22.29-10.6-22.29-10.6-8.28-6.17-11.32-7.91-10.94-8.67Z" fill="#f3bb1f"/>
    </g>
  </g>
  <g id="af" data-name="&amp;lt;径向重复&amp;gt;">
    <g id="ag" data-name="&amp;lt;径向重复&amp;gt;">
      <path d="M210.12,215.52c.63-.57,3.11,1.89,11.24,8.14.74.57,14.87,11.42,16.26,18.47.13.63.47,2.37-.44,3.2-.87.79-2.46.34-3.04.17-6.93-1.97-16.95-17.94-16.95-17.94-5.49-8.75-7.7-11.47-7.07-12.04Z" fill="#f3bb1f"/>
    </g>
  </g>
  <g id="ah" data-name="&amp;lt;径向重复&amp;gt;">
    <g id="ai" data-name="&amp;lt;径向重复&amp;gt;">
      <path d="M178.41,235.16c.79-.3,2.22,2.89,7.54,11.65.48.79,9.74,16.02,8.49,23.1-.11.63-.42,2.38-1.56,2.82-1.1.42-2.42-.57-2.9-.94-5.75-4.34-9.33-22.85-9.33-22.85-1.96-10.14-3.04-13.47-2.25-13.78Z" fill="#f3bb1f"/>
    </g>
  </g>
</svg>