<?xml version="1.0" encoding="UTF-8"?>
<svg id="a" data-name="图层 1" xmlns="http://www.w3.org/2000/svg" width="100mm" height="100mm" viewBox="0 0 283.46 283.46">
  <g id="b" data-name="&amp;lt;径向重复&amp;gt;">
    <g id="c" data-name="&amp;lt;径向重复&amp;gt;">
      <path d="M141.75,220.88c.66,0,.8,2.73,2.2,10.6,.13,.71,2.57,14.39-.33,19.19-.26,.43-.98,1.61-1.93,1.61-.92,0-1.6-1.1-1.84-1.5-2.96-4.78-.35-19.25-.35-19.25,1.43-7.93,1.59-10.66,2.25-10.66Z" fill="#f4bc1f"/>
    </g>
  </g>
  <g id="d" data-name="&amp;lt;径向重复&amp;gt;">
    <g id="e" data-name="&amp;lt;径向重复&amp;gt;">
      <path d="M113.15,215.54c.62,.24-.24,2.83-1.77,10.68-.14,.71-2.8,14.35-7.24,17.77-.4,.31-1.49,1.15-2.38,.81-.85-.33-1.09-1.6-1.18-2.06-1.04-5.53,6.63-18.07,6.63-18.07,4.2-6.87,5.33-9.36,5.95-9.12Z" fill="#f4bc1f"/>
    </g>
  </g>
  <g id="f" data-name="&amp;lt;径向重复&amp;gt;">
    <g id="g" data-name="&amp;lt;径向重复&amp;gt;">
      <path d="M88.42,200.23c.49,.45-1.25,2.55-5.51,9.32-.39,.61-7.8,12.37-13.17,13.96-.48,.14-1.81,.54-2.51-.11-.68-.62-.44-1.89-.35-2.35,1.03-5.53,12.71-14.46,12.71-14.46,6.4-4.89,8.35-6.81,8.84-6.36Z" fill="#f4bc1f"/>
    </g>
  </g>
  <g id="h" data-name="&amp;lt;径向重复&amp;gt;">
    <g id="i" data-name="&amp;lt;径向重复&amp;gt;">
      <path d="M70.89,177.03c.29,.59-2.08,1.93-8.5,6.7-.58,.43-11.74,8.72-17.33,8.26-.5-.04-1.88-.15-2.3-1.01-.41-.82,.27-1.92,.52-2.32,2.96-4.78,17.08-8.89,17.08-8.89,7.74-2.25,10.25-3.33,10.54-2.74Z" fill="#f4bc1f"/>
    </g>
  </g>
  <g id="j" data-name="&amp;lt;径向重复&amp;gt;">
    <g id="k" data-name="&amp;lt;径向重复&amp;gt;">
      <path d="M62.92,149.05c.06,.66-2.64,1.05-10.35,3.17-.7,.19-14.1,3.89-19.14,1.44-.45-.22-1.7-.82-1.78-1.77-.08-.91,.95-1.69,1.32-1.97,4.49-3.39,19.13-2.12,19.13-2.12,8.03,.7,10.76,.6,10.82,1.26Z" fill="#f4bc1f"/>
    </g>
  </g>
  <g id="l" data-name="&amp;lt;径向重复&amp;gt;">
    <g id="m" data-name="&amp;lt;径向重复&amp;gt;">
      <path d="M65.6,120.09c-.18,.63-2.84,.02-10.8-.78-.72-.07-14.55-1.47-18.37-5.57-.34-.37-1.29-1.38-1.02-2.3,.25-.88,1.49-1.23,1.94-1.36,5.41-1.54,18.61,4.93,18.61,4.93,7.23,3.55,9.82,4.44,9.63,5.08Z" fill="#f4bc1f"/>
    </g>
  </g>
  <g id="n" data-name="&amp;lt;径向重复&amp;gt;">
    <g id="o" data-name="&amp;lt;径向重复&amp;gt;">
      <path d="M78.56,94.04c-.4,.53-2.66-1-9.78-4.63-.65-.33-13.04-6.62-15.11-11.83-.19-.47-.7-1.75-.12-2.51,.55-.73,1.84-.61,2.3-.57,5.6,.52,15.57,11.32,15.57,11.32,5.46,5.92,7.55,7.69,7.15,8.22Z" fill="#f4bc1f"/>
    </g>
  </g>
  <g id="p" data-name="&amp;lt;径向重复&amp;gt;">
    <g id="q" data-name="&amp;lt;径向重复&amp;gt;">
      <path d="M100.05,74.44c-.56,.35-2.12-1.9-7.45-7.85-.48-.54-9.76-10.89-9.82-16.49,0-.5-.02-1.89,.79-2.39,.78-.48,1.94,.09,2.35,.3,5.03,2.5,10.43,16.18,10.43,16.18,2.95,7.49,4.26,9.9,3.7,10.24Z" fill="#f4bc1f"/>
    </g>
  </g>
  <g id="r" data-name="&amp;lt;径向重复&amp;gt;">
    <g id="s" data-name="&amp;lt;径向重复&amp;gt;">
      <path d="M127.17,63.93c-.65,.12-1.29-2.53-4.11-10.01-.26-.68-5.17-13.68-3.2-18.93,.18-.47,.66-1.77,1.6-1.94,.9-.17,1.77,.79,2.09,1.13,3.79,4.15,3.88,18.86,3.88,18.86,.05,8.06,.4,10.77-.25,10.89Z" fill="#f4bc1f"/>
    </g>
  </g>
  <g id="t" data-name="&amp;lt;径向重复&amp;gt;">
    <g id="u" data-name="&amp;lt;径向重复&amp;gt;">
      <path d="M156.26,63.93c-.65-.12-.29-2.83-.22-10.82,0-.72,.12-14.62,3.85-18.8,.33-.38,1.26-1.41,2.19-1.23,.9,.17,1.37,1.37,1.54,1.81,2.03,5.24-3.2,18.98-3.2,18.98-2.87,7.53-3.52,10.18-4.17,10.06Z" fill="#f4bc1f"/>
    </g>
  </g>
  <g id="v" data-name="&amp;lt;径向重复&amp;gt;">
    <g id="w" data-name="&amp;lt;径向重复&amp;gt;">
      <path d="M183.39,74.43c-.56-.35,.76-2.74,3.7-10.17,.27-.67,5.39-13.59,10.39-16.14,.45-.23,1.68-.86,2.49-.35,.78,.48,.78,1.78,.78,2.24,0,5.62-9.84,16.55-9.84,16.55-5.39,5.99-6.96,8.22-7.52,7.88Z" fill="#f4bc1f"/>
    </g>
  </g>
  <g id="x" data-name="&amp;lt;径向重复&amp;gt;">
    <g id="y" data-name="&amp;lt;径向重复&amp;gt;">
      <path d="M204.89,94.02c-.4-.53,1.69-2.28,7.13-8.14,.49-.53,9.94-10.73,15.52-11.3,.5-.05,1.88-.19,2.45,.57,.55,.73,.08,1.94-.08,2.37-2.03,5.24-15.15,11.88-15.15,11.88-7.19,3.63-9.46,5.15-9.86,4.63Z" fill="#f4bc1f"/>
    </g>
  </g>
  <g id="z" data-name="&amp;lt;径向重复&amp;gt;">
    <g id="aa" data-name="&amp;lt;径向重复&amp;gt;">
      <path d="M217.86,120.06c-.18-.64,2.4-1.52,9.59-5.02,.65-.32,13.14-6.41,18.55-4.93,.49,.13,1.82,.5,2.08,1.42,.25,.88-.62,1.84-.94,2.18-3.79,4.16-18.42,5.6-18.42,5.6-8.02,.79-10.68,1.39-10.86,.75Z" fill="#f4bc1f"/>
    </g>
  </g>
  <g id="ab" data-name="&amp;lt;径向重复&amp;gt;">
    <g id="ac" data-name="&amp;lt;径向重复&amp;gt;">
      <path d="M220.55,149.02c.06-.66,2.79-.55,10.75-1.22,.72-.06,14.57-1.23,19.08,2.1,.4,.3,1.52,1.12,1.43,2.07-.09,.91-1.24,1.49-1.66,1.7-5.03,2.51-19.2-1.43-19.2-1.43-7.76-2.16-10.46-2.56-10.4-3.22Z" fill="#f4bc1f"/>
    </g>
  </g>
  <g id="ad" data-name="&amp;lt;径向重复&amp;gt;">
    <g id="ae" data-name="&amp;lt;径向重复&amp;gt;">
      <path d="M212.59,177c.29-.59,2.8,.5,10.47,2.75,.7,.2,14.03,4.12,17.03,8.85,.27,.42,1.01,1.59,.58,2.45-.41,.82-1.7,.94-2.16,.98-5.6,.52-17.38-8.27-17.38-8.27-6.46-4.82-8.83-6.17-8.54-6.76Z" fill="#f4bc1f"/>
    </g>
  </g>
  <g id="af" data-name="&amp;lt;径向重复&amp;gt;">
    <g id="ag" data-name="&amp;lt;径向重复&amp;gt;">
      <path d="M195.07,200.22c.49-.44,2.43,1.48,8.77,6.35,.57,.44,11.6,8.91,12.68,14.41,.1,.49,.37,1.85-.34,2.49-.68,.62-1.92,.26-2.37,.14-5.41-1.54-13.22-13.99-13.22-13.99-4.28-6.82-6.01-8.94-5.52-9.39Z" fill="#f4bc1f"/>
    </g>
  </g>
  <g id="ah" data-name="&amp;lt;径向重复&amp;gt;">
    <g id="ai" data-name="&amp;lt;径向重复&amp;gt;">
      <path d="M170.34,215.53c.62-.24,1.73,2.25,5.88,9.09,.38,.62,7.6,12.49,6.62,18.02-.09,.5-.33,1.86-1.22,2.2-.86,.33-1.89-.45-2.26-.73-4.49-3.39-7.28-17.82-7.28-17.82-1.53-7.91-2.37-10.51-1.75-10.75Z" fill="#f4bc1f"/>
    </g>
  </g>
</svg>