<?xml version="1.0" encoding="UTF-8"?>
<svg id="a" data-name="图层 1" xmlns="http://www.w3.org/2000/svg" width="100mm" height="100mm" viewBox="0 0 283.46 283.46">
  <g id="b" data-name="&amp;lt;径向重复&amp;gt;">
    <path d="M141.49,36.5c-3.83,0-7.29,23.23-7.29,42.45,0,19.24,3.46,42.43,7.29,42.43,3.77,0,7.8-22.48,7.83-42.22.03-20.01-4.04-42.68-7.83-42.67Z" fill="#ffd824"/>
  </g>
  <g id="c" data-name="&amp;lt;径向重复&amp;gt;">
    <path d="M179.84,43.56c-3.58-1.38-15.19,19.03-22.14,36.95-6.95,17.94-12.1,40.81-8.53,42.2,3.51,1.37,15.39-18.15,22.55-36.54,7.26-18.65,11.65-41.25,8.12-42.62Z" fill="#ffd824"/>
  </g>
  <g id="d" data-name="&amp;lt;径向重复&amp;gt;">
    <path d="M213.04,64.01c-2.84-2.58-21.04,12.26-33.99,26.46-12.96,14.22-26.02,33.69-23.2,36.27,2.78,2.55,20.91-11.36,34.22-25.92,13.5-14.77,25.77-34.26,22.96-36.81Z" fill="#ffd824"/>
  </g>
  <g id="e" data-name="&amp;lt;径向重复&amp;gt;">
    <path d="M236.62,95.07c-1.72-3.43-24.05,3.83-41.25,12.4-17.22,8.57-36.43,22.01-34.73,25.44,1.68,3.38,23.6-3.04,41.28-11.81,17.92-8.89,36.4-22.64,34.71-26.03Z" fill="#ffd824"/>
  </g>
  <g id="f" data-name="&amp;lt;径向重复&amp;gt;">
    <path d="M247.39,132.55c-.36-3.82-23.81-5.12-42.94-3.34-19.15,1.77-41.92,7.36-41.58,11.18.34,3.76,23.11,5.69,42.76,3.9,19.93-1.82,42.12-7.96,41.76-11.73Z" fill="#ffd824"/>
  </g>
  <g id="g" data-name="&amp;lt;径向重复&amp;gt;">
    <path d="M243.89,171.38c1.04-3.69-20.35-13.37-38.84-18.63-18.5-5.26-41.75-8.28-42.81-4.6-1.04,3.63,19.49,13.65,38.46,19.08,19.24,5.51,42.15,7.79,43.18,4.15Z" fill="#ffd824"/>
  </g>
  <g id="h" data-name="&amp;lt;径向重复&amp;gt;">
    <path d="M226.59,206.33c2.3-3.06-14.15-19.82-29.48-31.4-15.35-11.59-35.94-22.8-38.26-19.75-2.28,3.01,13.24,19.77,28.97,31.69,15.95,12.08,36.49,22.5,38.77,19.47Z" fill="#ffd824"/>
  </g>
  <g id="i" data-name="&amp;lt;径向重复&amp;gt;">
    <path d="M197.84,232.68c3.26-2.02-6.03-23.59-16.15-39.93-10.13-16.35-25.28-34.25-28.54-32.24-3.21,1.98,5.21,23.22,15.57,40.01,10.51,17.03,25.9,34.16,29.12,32.16Z" fill="#ffd824"/>
  </g>
  <g id="j" data-name="&amp;lt;径向重复&amp;gt;">
    <path d="M161.52,246.85c3.77-.71,2.9-24.18-.63-43.07-3.53-18.91-11.2-41.07-14.96-40.37-3.71.69-3.53,23.53.06,42.94,3.65,19.67,11.81,41.21,15.53,40.5Z" fill="#ffd824"/>
  </g>
  <g id="k" data-name="&amp;lt;径向重复&amp;gt;">
    <path d="M122.52,246.95c3.77.7,11.44-21.5,14.97-40.39,3.53-18.91,4.39-42.34.63-43.05-3.71-.7-11.8,20.67-15.45,40.06-3.71,19.66-3.87,42.69-.15,43.38Z" fill="#ffd824"/>
  </g>
  <g id="l" data-name="&amp;lt;径向重复&amp;gt;">
    <path d="M86.13,232.96c3.26,2.01,18.43-15.92,28.55-32.26,10.13-16.35,19.39-37.89,16.14-39.92-3.2-1.99-18.47,15.01-28.88,31.77-10.56,17-19.03,38.41-15.81,40.4Z" fill="#ffd824"/>
  </g>
  <g id="m" data-name="&amp;lt;径向重复&amp;gt;">
    <path d="M57.24,206.76c2.32,3.06,22.94-8.18,38.27-19.76,15.35-11.59,31.77-28.33,29.47-31.39-2.27-3.01-22.64,7.33-38.41,19.19-15.99,12.03-31.62,28.94-29.33,31.96Z" fill="#ffd824"/>
  </g>
  <g id="n" data-name="&amp;lt;径向重复&amp;gt;">
    <path d="M39.77,171.9c1.06,3.69,24.34.65,42.83-4.6,18.5-5.26,39.86-14.94,38.82-18.63-1.03-3.63-23.76-1.35-42.75,4.02-19.25,5.45-39.94,15.56-38.9,19.21Z" fill="#ffd824"/>
  </g>
  <g id="o" data-name="&amp;lt;径向重复&amp;gt;">
    <path d="M36.08,133.08c-.35,3.82,22.46,9.4,41.6,11.18,19.15,1.78,42.56.47,42.92-3.35.35-3.75-21.67-9.84-41.31-11.69-19.92-1.88-42.87.08-43.21,3.86Z" fill="#ffd824"/>
  </g>
  <g id="p" data-name="&amp;lt;径向重复&amp;gt;">
    <path d="M46.65,95.55c-1.7,3.43,17.55,16.88,34.75,25.45,17.22,8.57,39.52,15.81,41.23,12.39,1.69-3.37-16.65-17-34.3-25.82-17.9-8.95-40-15.41-41.68-12.01Z" fill="#ffd824"/>
  </g>
  <g id="q" data-name="&amp;lt;径向重复&amp;gt;">
    <path d="M70.08,64.37c-2.83,2.59,10.26,22.08,23.21,36.29,12.96,14.22,31.14,29.02,33.98,26.45,2.79-2.54-9.39-21.87-22.66-36.47-13.46-14.81-31.74-28.82-34.53-26.26Z" fill="#ffd824"/>
  </g>
  <g id="r" data-name="&amp;lt;径向重复&amp;gt;">
    <path d="M103.18,43.76c-3.57,1.39,1.59,24.3,8.54,42.22,6.95,17.94,18.56,38.31,22.13,36.93,3.52-1.36-.85-23.78-7.95-42.19-7.2-18.67-19.18-38.34-22.71-36.96Z" fill="#ffd824"/>
  </g>
</svg>