<?xml version="1.0" encoding="UTF-8"?>
<svg id="a" data-name="图层 1" xmlns="http://www.w3.org/2000/svg" width="100mm" height="100mm" viewBox="0 0 283.46 283.46">
  <g id="b" data-name="&amp;lt;径向重复&amp;gt;">
    <path d="M141.74,164.94c.47,0,.57,4.22,1.56,16.4,.09,1.1,1.82,22.28-.23,29.7-.18,.67-.69,2.5-1.36,2.5-.65,0-1.13-1.7-1.3-2.32-2.09-7.4-.24-29.79-.24-29.79,1.01-12.27,1.12-16.49,1.59-16.49Z" fill="#fbf6cb"/>
  </g>
  <g id="c" data-name="&amp;lt;径向重复&amp;gt;">
    <path d="M133.36,163.38c.43,.17-1,4.14-4.47,15.86-.32,1.06-6.35,21.43-10.95,27.61-.41,.55-1.55,2.08-2.17,1.83-.6-.24-.44-1.99-.38-2.63,.72-7.65,10.53-27.87,10.53-27.87,5.38-11.07,7-14.97,7.44-14.8Z" fill="#fbf6cb"/>
  </g>
  <g id="d" data-name="&amp;lt;径向重复&amp;gt;">
    <path d="M126.1,158.89c.34,.32-2.43,3.5-9.9,13.17-.68,.88-13.67,17.69-20.18,21.79-.58,.37-2.19,1.38-2.69,.92-.48-.44,.31-2.02,.6-2.59,3.44-6.88,19.89-22.18,19.89-22.18,9.01-8.38,11.94-11.43,12.28-11.12Z" fill="#fbf6cb"/>
  </g>
  <g id="e" data-name="&amp;lt;径向重复&amp;gt;">
    <path d="M120.96,152.09c.21,.42-3.53,2.39-13.99,8.7-.95,.57-19.13,11.56-26.69,13.03-.68,.13-2.55,.5-2.84-.11-.29-.58,1.02-1.77,1.49-2.2,5.69-5.17,26.56-13.5,26.56-13.5,11.43-4.56,15.26-6.35,15.47-5.93Z" fill="#fbf6cb"/>
  </g>
  <g id="f" data-name="&amp;lt;径向重复&amp;gt;">
    <path d="M118.62,143.88c.04,.46-4.15,.95-16.19,3.06-1.09,.19-22.02,3.86-29.6,2.51-.68-.12-2.55-.46-2.61-1.13-.06-.65,1.59-1.28,2.19-1.51,7.17-2.77,29.64-2.99,29.64-2.99,12.31-.12,16.53-.4,16.57,.06Z" fill="#fbf6cb"/>
  </g>
  <g id="g" data-name="&amp;lt;径向重复&amp;gt;">
    <path d="M119.41,135.39c-.13,.45-4.22-.61-16.2-2.99-1.09-.22-21.92-4.35-28.5-8.35-.59-.36-2.21-1.35-2.03-2,.18-.62,1.95-.62,2.58-.62,7.69,.01,28.72,7.92,28.72,7.92,11.52,4.33,15.56,5.59,15.43,6.04Z" fill="#fbf6cb"/>
  </g>
  <g id="h" data-name="&amp;lt;径向重复&amp;gt;">
    <path d="M123.2,127.75c-.28,.37-3.71-2.09-14.03-8.64-.94-.59-18.87-11.98-23.56-18.09-.42-.55-1.58-2.06-1.17-2.59,.39-.51,2.04,.12,2.63,.36,7.16,2.79,23.92,17.76,23.92,17.76,9.18,8.2,12.48,10.83,12.2,11.21Z" fill="#fbf6cb"/>
  </g>
  <g id="i" data-name="&amp;lt;径向重复&amp;gt;">
    <path d="M129.51,122.01c-.4,.24-2.7-3.29-9.96-13.12-.66-.89-13.27-17.98-15.44-25.38-.19-.66-.73-2.49-.15-2.84,.55-.34,1.86,.85,2.33,1.28,5.67,5.19,15.89,25.2,15.89,25.2,5.6,10.96,7.73,14.61,7.33,14.86Z" fill="#fbf6cb"/>
  </g>
  <g id="j" data-name="&amp;lt;径向重复&amp;gt;">
    <path d="M137.46,118.92c-.46,.08-1.33-4.05-4.54-15.83-.29-1.07-5.88-21.56-5.23-29.24,.06-.69,.22-2.58,.88-2.7,.64-.12,1.42,1.47,1.71,2.04,3.42,6.89,5.71,29.24,5.71,29.24,1.26,12.25,1.93,16.42,1.47,16.5Z" fill="#fbf6cb"/>
  </g>
  <g id="k" data-name="&amp;lt;径向重复&amp;gt;">
    <path d="M145.99,118.92c-.46-.09,.22-4.25,1.48-16.41,.11-1.1,2.31-22.23,5.69-29.15,.3-.62,1.14-2.33,1.8-2.2,.64,.12,.8,1.88,.85,2.52,.7,7.66-5.23,29.33-5.23,29.33-3.25,11.87-4.13,16.01-4.59,15.92Z" fill="#fbf6cb"/>
  </g>
  <g id="l" data-name="&amp;lt;径向重复&amp;gt;">
    <path d="M153.94,121.99c-.4-.25,1.74-3.89,7.31-14.76,.51-.99,10.18-19.9,15.84-25.13,.51-.47,1.9-1.76,2.47-1.4,.55,.34,.06,2.04-.11,2.65-2.11,7.39-15.47,25.46-15.47,25.46-7.32,9.9-9.64,13.43-10.03,13.18Z" fill="#fbf6cb"/>
  </g>
  <g id="m" data-name="&amp;lt;径向重复&amp;gt;">
    <path d="M160.25,127.74c-.28-.37,3.03-3,12.15-11.13,.83-.74,16.68-14.87,23.84-17.71,.64-.25,2.41-.96,2.81-.41,.39,.52-.68,1.93-1.06,2.43-4.64,6.13-23.63,18.15-23.63,18.15-10.4,6.59-13.84,9.04-14.12,8.67Z" fill="#fbf6cb"/>
  </g>
  <g id="n" data-name="&amp;lt;径向重复&amp;gt;">
    <path d="M164.05,135.37c-.13-.45,3.91-1.7,15.35-5.99,1.04-.39,20.93-7.84,28.63-7.9,.69,0,2.59-.02,2.77,.63,.17,.62-1.33,1.55-1.87,1.89-6.54,4.04-28.59,8.39-28.59,8.39-12.08,2.38-16.17,3.43-16.3,2.98Z" fill="#fbf6cb"/>
  </g>
  <g id="o" data-name="&amp;lt;径向重复&amp;gt;">
    <path d="M164.84,143.86c.04-.46,4.26-.17,16.47-.04,1.11,.01,22.35,.25,29.55,2.97,.65,.24,2.42,.92,2.36,1.59-.06,.64-1.8,.97-2.43,1.08-7.56,1.4-29.69-2.51-29.69-2.51-12.12-2.14-16.32-2.64-16.27-3.1Z" fill="#fbf6cb"/>
  </g>
  <g id="p" data-name="&amp;lt;径向重复&amp;gt;">
    <path d="M162.51,152.07c.21-.42,4.03,1.38,15.38,5.92,1.03,.41,20.75,8.3,26.48,13.45,.51,.46,1.93,1.73,1.63,2.33-.29,.58-2.03,.25-2.65,.13-7.55-1.42-26.78-13.06-26.78-13.06-10.53-6.38-14.26-8.36-14.05-8.77Z" fill="#fbf6cb"/>
  </g>
  <g id="q" data-name="&amp;lt;径向重复&amp;gt;">
    <path d="M157.38,158.88c.35-.31,3.26,2.74,12.2,11.07,.81,.76,16.35,15.24,19.84,22.11,.31,.62,1.17,2.31,.67,2.76-.48,.43-1.98-.5-2.52-.83-6.53-4.06-20.25-21.85-20.25-21.85-7.52-9.75-10.28-12.94-9.94-13.26Z" fill="#fbf6cb"/>
  </g>
  <g id="r" data-name="&amp;lt;径向重复&amp;gt;">
    <path d="M150.13,163.37c.44-.17,2.05,3.73,7.38,14.73,.48,1,9.74,20.12,10.51,27.78,.07,.69,.26,2.58-.37,2.82-.61,.23-1.67-1.18-2.05-1.69-4.62-6.14-10.99-27.69-10.99-27.69-3.49-11.81-4.91-15.78-4.48-15.95Z" fill="#fbf6cb"/>
  </g>
</svg>