<?xml version="1.0" encoding="UTF-8"?>
<svg id="a" data-name="图层 1" xmlns="http://www.w3.org/2000/svg" width="100mm" height="100mm" viewBox="0 0 283.46 283.46">
  <g id="b" data-name="&amp;lt;径向重复&amp;gt;">
    <path d="M141.75,170.71c.6,0,.73,5.41,2,21.03.12,1.42,2.33,28.56-.3,38.08-.24.85-.89,3.2-1.75,3.2-.83,0-1.45-2.18-1.67-2.97-2.68-9.48-.31-38.19-.31-38.19,1.3-15.73,1.44-21.14,2.04-21.14Z" fill="#faf5ca"/>
  </g>
  <g id="c" data-name="&amp;lt;径向重复&amp;gt;">
    <path d="M131,168.71c.56.22-1.28,5.31-5.73,20.33-.4,1.36-8.15,27.47-14.04,35.4-.53.71-1.98,2.67-2.79,2.35-.77-.3-.56-2.56-.48-3.37.92-9.81,13.5-35.73,13.5-35.73,6.89-14.2,8.98-19.2,9.54-18.98Z" fill="#faf5ca"/>
  </g>
  <g id="d" data-name="&amp;lt;径向重复&amp;gt;">
    <path d="M121.7,162.95c.44.4-3.11,4.49-12.69,16.88-.87,1.12-17.52,22.68-25.88,27.94-.75.47-2.81,1.77-3.45,1.19-.61-.56.4-2.59.77-3.32,4.4-8.82,25.5-28.44,25.5-28.44,11.56-10.75,15.31-14.66,15.75-14.25Z" fill="#faf5ca"/>
  </g>
  <g id="e" data-name="&amp;lt;径向重复&amp;gt;">
    <path d="M115.11,154.23c.27.54-4.52,3.06-17.93,11.16-1.22.73-24.53,14.82-34.22,16.7-.87.17-3.26.64-3.64-.14-.37-.75,1.31-2.27,1.91-2.82,7.29-6.63,34.05-17.3,34.05-17.3,14.66-5.85,19.57-8.14,19.83-7.6Z" fill="#faf5ca"/>
  </g>
  <g id="f" data-name="&amp;lt;径向重复&amp;gt;">
    <path d="M112.11,143.72c.05.6-5.32,1.22-20.75,3.93-1.4.25-28.22,4.95-37.94,3.21-.87-.16-3.27-.59-3.35-1.45-.07-.83,2.04-1.64,2.8-1.94,9.19-3.55,38-3.84,38-3.84,15.78-.16,21.19-.52,21.24.08Z" fill="#faf5ca"/>
  </g>
  <g id="g" data-name="&amp;lt;径向重复&amp;gt;">
    <path d="M113.11,132.83c-.17.58-5.4-.78-20.77-3.83-1.39-.28-28.11-5.58-36.54-10.71-.76-.46-2.84-1.73-2.6-2.56.23-.8,2.49-.79,3.31-.79,9.86.01,36.82,10.15,36.82,10.15,14.77,5.55,19.94,7.17,19.78,7.75Z" fill="#faf5ca"/>
  </g>
  <g id="h" data-name="&amp;lt;径向重复&amp;gt;">
    <path d="M117.98,123.04c-.36.48-4.76-2.68-17.98-11.08-1.2-.76-24.2-15.35-30.21-23.19-.54-.7-2.02-2.64-1.5-3.32.5-.66,2.61.16,3.38.46,9.18,3.57,30.67,22.77,30.67,22.77,11.77,10.52,16.01,13.89,15.64,14.37Z" fill="#faf5ca"/>
  </g>
  <g id="i" data-name="&amp;lt;径向重复&amp;gt;">
    <path d="M126.06,115.67c-.51.31-3.47-4.22-12.77-16.83-.84-1.14-17.02-23.06-19.79-32.53-.25-.85-.93-3.19-.2-3.64.71-.43,2.38,1.09,2.98,1.65,7.27,6.65,20.37,32.31,20.37,32.31,7.18,14.06,9.91,18.73,9.4,19.05Z" fill="#faf5ca"/>
  </g>
  <g id="j" data-name="&amp;lt;径向重复&amp;gt;">
    <path d="M136.25,111.71c-.59.11-1.71-5.19-5.83-20.3-.37-1.37-7.54-27.65-6.7-37.49.08-.88.28-3.31,1.13-3.47.82-.15,1.82,1.88,2.19,2.61,4.38,8.83,7.33,37.48,7.33,37.48,1.61,15.7,2.47,21.05,1.88,21.16Z" fill="#faf5ca"/>
  </g>
  <g id="k" data-name="&amp;lt;径向重复&amp;gt;">
    <path d="M147.19,111.71c-.59-.11.28-5.45,1.9-21.04.15-1.41,2.96-28.5,7.29-37.38.39-.8,1.46-2.99,2.31-2.82.82.16,1.02,2.41,1.1,3.23.9,9.81-6.71,37.6-6.71,37.6-4.17,15.22-5.3,20.52-5.89,20.41Z" fill="#faf5ca"/>
  </g>
  <g id="l" data-name="&amp;lt;径向重复&amp;gt;">
    <path d="M157.39,115.65c-.51-.32,2.23-4.98,9.37-18.93.65-1.26,13.06-25.51,20.3-32.22.65-.6,2.44-2.26,3.17-1.8.7.44.08,2.62-.14,3.4-2.71,9.48-19.84,32.64-19.84,32.64-9.38,12.69-12.35,17.22-12.86,16.9Z" fill="#faf5ca"/>
  </g>
  <g id="m" data-name="&amp;lt;径向重复&amp;gt;">
    <path d="M165.47,123.01c-.36-.48,3.88-3.84,15.58-14.26,1.06-.95,21.39-19.07,30.57-22.71.82-.33,3.09-1.22,3.61-.53.5.67-.87,2.47-1.36,3.12-5.95,7.86-30.29,23.27-30.29,23.27-13.34,8.44-17.74,11.59-18.1,11.12Z" fill="#faf5ca"/>
  </g>
  <g id="n" data-name="&amp;lt;径向重复&amp;gt;">
    <path d="M170.35,132.8c-.16-.58,5.01-2.18,19.68-7.67,1.33-.5,26.83-10.06,36.71-10.13.89,0,3.32-.03,3.56.81.22.8-1.7,1.99-2.4,2.42-8.39,5.18-36.65,10.75-36.65,10.75-15.48,3.06-20.73,4.4-20.89,3.83Z" fill="#faf5ca"/>
  </g>
  <g id="o" data-name="&amp;lt;径向重复&amp;gt;">
    <path d="M171.37,143.69c.06-.6,5.46-.22,21.12-.05,1.42.02,28.65.32,37.89,3.81.83.31,3.11,1.18,3.02,2.04-.08.83-2.31,1.24-3.11,1.39-9.69,1.8-38.06-3.21-38.06-3.21-15.54-2.74-20.92-3.38-20.86-3.98Z" fill="#faf5ca"/>
  </g>
  <g id="p" data-name="&amp;lt;径向重复&amp;gt;">
    <path d="M168.38,154.21c.27-.53,5.17,1.76,19.71,7.58,1.32.53,26.61,10.65,33.95,17.24.66.59,2.47,2.22,2.08,2.99-.37.74-2.6.32-3.4.17-9.69-1.82-34.33-16.74-34.33-16.74-13.5-8.17-18.29-10.71-18.02-11.25Z" fill="#faf5ca"/>
  </g>
  <g id="q" data-name="&amp;lt;径向重复&amp;gt;">
    <path d="M161.79,162.94c.44-.4,4.18,3.51,15.64,14.19,1.04.97,20.96,19.54,25.43,28.34.4.79,1.5,2.96.86,3.54-.62.56-2.54-.64-3.23-1.07-8.37-5.2-25.96-28.01-25.96-28.01-9.64-12.5-13.18-16.6-12.74-17Z" fill="#faf5ca"/>
  </g>
  <g id="r" data-name="&amp;lt;径向重复&amp;gt;">
    <path d="M152.5,168.7c.56-.21,2.63,4.78,9.46,18.88.62,1.28,12.49,25.79,13.47,35.62.09.88.33,3.31-.48,3.62-.78.3-2.14-1.51-2.63-2.17-5.93-7.87-14.09-35.5-14.09-35.5-4.47-15.14-6.3-20.24-5.74-20.45Z" fill="#faf5ca"/>
  </g>
</svg>