<?xml version="1.0" encoding="UTF-8"?>
<svg id="a" data-name="图层 1" xmlns="http://www.w3.org/2000/svg" width="100mm" height="100mm" viewBox="0 0 283.46 283.46">
  <g id="b" data-name="&amp;lt;径向重复&amp;gt;">
    <path d="M141.52,58.97c-2.99,0-5.69,18.12-5.69,33.11,0,15,2.7,33.09,5.69,33.1,2.94,0,6.08-17.54,6.1-32.93,.02-15.61-3.15-33.29-6.1-33.28Z" fill="#fed925"/>
  </g>
  <g id="c" data-name="&amp;lt;径向重复&amp;gt;">
    <path d="M171.43,64.48c-2.79-1.08-11.85,14.84-17.27,28.82-5.42,13.99-9.43,31.83-6.65,32.92,2.74,1.07,12.01-14.16,17.59-28.5,5.66-14.54,9.09-32.18,6.33-33.24Z" fill="#fed925"/>
  </g>
  <g id="d" data-name="&amp;lt;径向重复&amp;gt;">
    <path d="M197.33,80.43c-2.21-2.01-16.41,9.56-26.51,20.64-10.11,11.09-20.3,26.28-18.09,28.29,2.17,1.99,16.31-8.86,26.7-20.22,10.53-11.52,20.1-26.72,17.91-28.71Z" fill="#fed925"/>
  </g>
  <g id="e" data-name="&amp;lt;径向重复&amp;gt;">
    <path d="M215.73,104.66c-1.34-2.67-18.76,2.99-32.18,9.67-13.43,6.69-28.42,17.17-27.09,19.84,1.31,2.64,18.41-2.37,32.2-9.21,13.98-6.94,28.39-17.66,27.07-20.3Z" fill="#fed925"/>
  </g>
  <g id="f" data-name="&amp;lt;径向重复&amp;gt;">
    <path d="M224.12,133.89c-.28-2.98-18.57-3.99-33.5-2.61-14.94,1.38-32.7,5.74-32.43,8.72,.27,2.93,18.02,4.44,33.35,3.04,15.54-1.42,32.85-6.21,32.58-9.15Z" fill="#fed925"/>
  </g>
  <g id="g" data-name="&amp;lt;径向重复&amp;gt;">
    <path d="M221.39,164.18c.81-2.88-15.87-10.43-30.29-14.53-14.43-4.11-32.57-6.46-33.39-3.59-.81,2.83,15.2,10.65,30,14.88,15,4.29,32.88,6.08,33.68,3.24Z" fill="#fed925"/>
  </g>
  <g id="h" data-name="&amp;lt;径向重复&amp;gt;">
    <path d="M207.9,191.44c1.8-2.39-11.04-15.46-23-24.49-11.97-9.04-28.04-17.79-29.84-15.41-1.78,2.34,10.33,15.42,22.6,24.72,12.44,9.42,28.46,17.55,30.24,15.18Z" fill="#fed925"/>
  </g>
  <g id="i" data-name="&amp;lt;径向重复&amp;gt;">
    <path d="M185.48,211.99c2.54-1.58-4.71-18.4-12.6-31.15-7.9-12.76-19.72-26.71-22.26-25.15-2.5,1.54,4.06,18.11,12.14,31.21,8.2,13.28,20.2,26.64,22.71,25.08Z" fill="#fed925"/>
  </g>
  <g id="j" data-name="&amp;lt;径向重复&amp;gt;">
    <path d="M157.15,223.05c2.94-.55,2.26-18.86-.49-33.59-2.76-14.75-8.74-32.03-11.67-31.49-2.89,.54-2.76,18.36,.05,33.49,2.84,15.35,9.21,32.14,12.12,31.59Z" fill="#fed925"/>
  </g>
  <g id="k" data-name="&amp;lt;径向重复&amp;gt;">
    <path d="M126.73,223.12c2.94,.54,8.92-16.77,11.68-31.5,2.76-14.75,3.43-33.02,.49-33.58-2.89-.55-9.2,16.12-12.05,31.25-2.89,15.34-3.02,33.3-.11,33.84Z" fill="#fed925"/>
  </g>
  <g id="l" data-name="&amp;lt;径向重复&amp;gt;">
    <path d="M98.34,212.21c2.55,1.57,14.38-12.41,22.27-25.16,7.9-12.76,15.12-29.56,12.59-31.13-2.5-1.55-14.4,11.71-22.52,24.78-8.24,13.26-14.85,29.96-12.33,31.51Z" fill="#fed925"/>
  </g>
  <g id="m" data-name="&amp;lt;径向重复&amp;gt;">
    <path d="M75.81,191.77c1.81,2.38,17.89-6.38,29.85-15.42,11.97-9.04,24.78-22.1,22.98-24.48-1.77-2.35-17.66,5.72-29.96,14.97-12.47,9.39-24.67,22.57-22.88,24.93Z" fill="#fed925"/>
  </g>
  <g id="n" data-name="&amp;lt;径向重复&amp;gt;">
    <path d="M62.19,164.58c.82,2.87,18.99,.51,33.41-3.59,14.43-4.11,31.09-11.65,30.28-14.53-.8-2.83-18.53-1.05-33.34,3.14-15.02,4.25-31.15,12.14-30.34,14.98Z" fill="#fed925"/>
  </g>
  <g id="o" data-name="&amp;lt;径向重复&amp;gt;">
    <path d="M59.3,134.3c-.27,2.98,17.52,7.34,32.45,8.72,14.94,1.38,33.2,.36,33.48-2.61,.28-2.93-16.9-7.67-32.22-9.12-15.54-1.46-33.44,.07-33.7,3.01Z" fill="#fed925"/>
  </g>
  <g id="p" data-name="&amp;lt;径向重复&amp;gt;">
    <path d="M67.55,105.03c-1.33,2.68,13.69,13.17,27.11,19.85,13.43,6.69,30.83,12.33,32.16,9.66,1.32-2.63-12.99-13.26-26.76-20.14-13.96-6.98-31.2-12.02-32.51-9.37Z" fill="#fed925"/>
  </g>
  <g id="q" data-name="&amp;lt;径向重复&amp;gt;">
    <path d="M85.82,80.71c-2.21,2.02,8.01,17.22,18.11,28.3,10.11,11.09,24.29,22.63,26.5,20.63,2.18-1.98-7.32-17.06-17.67-28.45-10.5-11.55-24.75-22.48-26.93-20.48Z" fill="#fed925"/>
  </g>
  <g id="r" data-name="&amp;lt;径向重复&amp;gt;">
    <path d="M111.64,64.63c-2.79,1.09,1.24,18.95,6.66,32.93,5.42,13.99,14.47,29.88,17.26,28.81,2.75-1.06-.66-18.55-6.2-32.91-5.62-14.56-14.96-29.9-17.72-28.83Z" fill="#fed925"/>
  </g>
</svg>