<?xml version="1.0" encoding="UTF-8"?>
<svg id="a" data-name="图层 1" xmlns="http://www.w3.org/2000/svg" width="100mm" height="100mm" viewBox="0 0 283.46 283.46">
  <g id="b" data-name="&amp;lt;径向重复&amp;gt;">
    <g id="c" data-name="&amp;lt;径向重复&amp;gt;">
      <path d="M141.75,213.46c.62,0,.76,3.29,2.08,12.79,.12,.86,2.43,17.37-.31,23.16-.25,.52-.92,1.95-1.83,1.95-.87,0-1.51-1.33-1.74-1.81-2.8-5.77-.33-23.23-.33-23.23,1.35-9.57,1.5-12.86,2.13-12.86Z" fill="#f4bc1f"/>
    </g>
  </g>
  <g id="d" data-name="&amp;lt;径向重复&amp;gt;">
    <g id="e" data-name="&amp;lt;径向重复&amp;gt;">
      <path d="M115.5,208.56c.58,.23-.48,3.34-2.68,12.68-.2,.85-4.01,17.08-8.66,21.48-.42,.4-1.57,1.48-2.4,1.16-.81-.32-.93-1.78-.97-2.31-.53-6.39,8.09-21.78,8.09-21.78,4.72-8.43,6.05-11.45,6.63-11.22Z" fill="#f4bc1f"/>
    </g>
  </g>
  <g id="f" data-name="&amp;lt;径向重复&amp;gt;">
    <g id="g" data-name="&amp;lt;径向重复&amp;gt;">
      <path d="M92.8,194.5c.46,.42-1.66,2.94-7.08,10.85-.49,.72-9.91,14.47-15.84,16.91-.53,.22-2,.82-2.66,.21-.64-.59-.22-2-.07-2.51,1.82-6.15,15.41-17.39,15.41-17.39,7.45-6.16,9.77-8.49,10.23-8.07Z" fill="#f4bc1f"/>
    </g>
  </g>
  <g id="h" data-name="&amp;lt;径向重复&amp;gt;">
    <g id="i" data-name="&amp;lt;径向重复&amp;gt;">
      <path d="M76.71,173.2c.28,.56-2.61,2.14-10.52,7.57-.72,.49-14.47,9.92-20.87,10.04-.57,.01-2.16,.04-2.56-.77-.38-.78,.52-1.94,.84-2.36,3.92-5.08,20.65-10.65,20.65-10.65,9.17-3.05,12.18-4.39,12.46-3.83Z" fill="#f4bc1f"/>
    </g>
  </g>
  <g id="j" data-name="&amp;lt;径向重复&amp;gt;">
    <g id="k" data-name="&amp;lt;径向重复&amp;gt;">
      <path d="M69.39,147.52c.06,.62-3.21,1.06-12.54,3.25-.85,.2-17.07,4.02-23.09,1.82-.54-.2-2.03-.74-2.11-1.64-.08-.86,1.18-1.63,1.64-1.9,5.48-3.32,23.1-2.47,23.1-2.47,9.65,.47,12.94,.31,13,.93Z" fill="#f4bc1f"/>
    </g>
  </g>
  <g id="l" data-name="&amp;lt;径向重复&amp;gt;">
    <g id="m" data-name="&amp;lt;径向重复&amp;gt;">
      <path d="M71.85,120.93c-.17,.6-3.37-.17-12.87-1.5-.86-.12-17.37-2.42-22.19-6.64-.43-.38-1.62-1.42-1.37-2.29,.24-.83,1.69-1.09,2.21-1.18,6.31-1.11,22.43,6.04,22.43,6.04,8.83,3.92,11.96,4.96,11.79,5.56Z" fill="#f4bc1f"/>
    </g>
  </g>
  <g id="n" data-name="&amp;lt;径向重复&amp;gt;">
    <g id="o" data-name="&amp;lt;径向重复&amp;gt;">
      <path d="M83.75,97.03c-.38,.5-3.08-1.38-11.46-6.05-.76-.42-15.33-8.53-18.29-14.21-.27-.51-1-1.91-.45-2.63,.52-.69,1.97-.4,2.49-.3,6.29,1.24,18.74,13.74,18.74,13.74,6.82,6.85,9.36,8.95,8.98,9.45Z" fill="#f4bc1f"/>
    </g>
  </g>
  <g id="p" data-name="&amp;lt;径向重复&amp;gt;">
    <g id="q" data-name="&amp;lt;径向重复&amp;gt;">
      <path d="M103.48,79.04c-.53,.33-2.38-2.4-8.5-9.78-.56-.67-11.21-13.49-11.93-19.86-.06-.57-.24-2.14,.53-2.62,.74-.45,1.98,.33,2.43,.62,5.42,3.43,12.51,19.58,12.51,19.58,3.88,8.85,5.49,11.72,4.96,12.05Z" fill="#f4bc1f"/>
    </g>
  </g>
  <g id="r" data-name="&amp;lt;径向重复&amp;gt;">
    <g id="s" data-name="&amp;lt;径向重复&amp;gt;">
      <path d="M128.37,69.39c-.61,.11-1.35-3.1-4.4-12.19-.28-.82-5.58-16.63-3.95-22.83,.15-.56,.55-2.09,1.44-2.25,.85-.16,1.73,1.03,2.04,1.46,3.81,5.16,4.59,22.78,4.59,22.78,.43,9.65,.89,12.92,.27,13.03Z" fill="#f4bc1f"/>
    </g>
  </g>
  <g id="t" data-name="&amp;lt;径向重复&amp;gt;">
    <g id="u" data-name="&amp;lt;径向重复&amp;gt;">
      <path d="M155.07,69.38c-.61-.12-.14-3.37,.3-12.95,.04-.87,.8-17.52,4.56-22.71,.34-.47,1.27-1.75,2.15-1.58,.85,.16,1.24,1.58,1.38,2.1,1.69,6.18-3.95,22.9-3.95,22.9-3.09,9.16-3.84,12.37-4.45,12.25Z" fill="#f4bc1f"/>
    </g>
  </g>
  <g id="v" data-name="&amp;lt;径向重复&amp;gt;">
    <g id="w" data-name="&amp;lt;径向重复&amp;gt;">
      <path d="M179.97,79.02c-.53-.33,1.09-3.2,4.96-11.97,.35-.8,7.08-16.05,12.46-19.53,.48-.31,1.81-1.17,2.58-.69,.74,.46,.58,1.92,.53,2.45-.66,6.38-11.95,19.92-11.95,19.92-6.19,7.42-8.05,10.14-8.58,9.82Z" fill="#f4bc1f"/>
    </g>
  </g>
  <g id="x" data-name="&amp;lt;径向重复&amp;gt;">
    <g id="y" data-name="&amp;lt;径向重复&amp;gt;">
      <path d="M199.71,97.01c-.38-.5,2.17-2.59,8.95-9.37,.61-.62,12.4-12.41,18.67-13.71,.56-.12,2.11-.44,2.65,.28,.52,.69-.15,2-.39,2.48-2.92,5.71-18.34,14.26-18.34,14.26-8.45,4.68-11.17,6.55-11.54,6.05Z" fill="#f4bc1f"/>
    </g>
  </g>
  <g id="z" data-name="&amp;lt;径向重复&amp;gt;">
    <g id="aa" data-name="&amp;lt;径向重复&amp;gt;">
      <path d="M211.61,120.91c-.17-.6,2.96-1.63,11.73-5.5,.8-.35,16.05-7.09,22.36-6.04,.57,.09,2.13,.35,2.37,1.22,.23,.83-.86,1.81-1.26,2.17-4.78,4.27-22.25,6.67-22.25,6.67-9.57,1.32-12.78,2.08-12.95,1.48Z" fill="#f4bc1f"/>
    </g>
  </g>
  <g id="ab" data-name="&amp;lt;径向重复&amp;gt;">
    <g id="ac" data-name="&amp;lt;径向重复&amp;gt;">
      <path d="M214.08,147.49c.06-.62,3.35-.45,12.93-.89,.87-.04,17.52-.82,23.03,2.45,.49,.29,1.86,1.1,1.77,2-.08,.86-1.46,1.38-1.96,1.57-6,2.26-23.16-1.82-23.16-1.82-9.4-2.23-12.67-2.68-12.61-3.3Z" fill="#f4bc1f"/>
    </g>
  </g>
  <g id="ad" data-name="&amp;lt;径向重复&amp;gt;">
    <g id="ae" data-name="&amp;lt;径向重复&amp;gt;">
      <path d="M206.78,173.17c.28-.56,3.28,.79,12.38,3.84,.82,.28,16.63,5.57,20.59,10.61,.36,.45,1.33,1.7,.93,2.5-.39,.77-1.86,.76-2.39,.75-6.41-.06-20.94-10.06-20.94-10.06-7.96-5.48-10.84-7.08-10.56-7.63Z" fill="#f4bc1f"/>
    </g>
  </g>
  <g id="af" data-name="&amp;lt;径向重复&amp;gt;">
    <g id="ag" data-name="&amp;lt;径向重复&amp;gt;">
      <path d="M190.69,194.48c.46-.42,2.78,1.92,10.16,8.05,.67,.56,13.5,11.2,15.37,17.33,.17,.55,.63,2.06-.04,2.67-.64,.58-2.01,.04-2.5-.16-5.95-2.38-15.89-16.95-15.89-16.95-5.44-7.98-7.56-10.52-7.09-10.94Z" fill="#f4bc1f"/>
    </g>
  </g>
  <g id="ah" data-name="&amp;lt;径向重复&amp;gt;">
    <g id="ai" data-name="&amp;lt;径向重复&amp;gt;">
      <path d="M167.99,208.55c.58-.22,1.89,2.8,6.56,11.17,.42,.76,8.54,15.32,8.07,21.71-.04,.57-.16,2.15-1,2.47-.81,.31-1.89-.69-2.28-1.05-4.69-4.37-8.7-21.54-8.7-21.54-2.19-9.41-3.25-12.53-2.66-12.76Z" fill="#f4bc1f"/>
    </g>
  </g>
</svg>