<?xml version="1.0" encoding="UTF-8"?>
<svg id="a" data-name="图层 1" xmlns="http://www.w3.org/2000/svg" width="100mm" height="100mm" viewBox="0 0 283.46 283.46">
  <g id="b" data-name="&amp;lt;径向重复&amp;gt;">
    <g id="c" data-name="&amp;lt;径向重复&amp;gt;">
      <path d="M141.75,233.69c.8,0,.97,4.22,2.67,16.4.15,1.1,3.11,22.27-.4,29.69-.32.67-1.18,2.5-2.34,2.49-1.11,0-1.93-1.7-2.23-2.32-3.59-7.39-.42-29.78-.42-29.78,1.74-12.27,1.92-16.49,2.72-16.49Z" fill="#f3bb1f"/>
    </g>
  </g>
  <g id="d" data-name="&amp;lt;径向重复&amp;gt;">
    <g id="e" data-name="&amp;lt;径向重复&amp;gt;">
      <path d="M108.1,227.4c.75.29-.62,4.29-3.43,16.25-.26,1.09-5.14,21.89-11.1,27.54-.53.51-2.01,1.9-3.08,1.48-1.03-.4-1.19-2.29-1.25-2.97-.68-8.19,10.37-27.92,10.37-27.92,6.05-10.81,7.75-14.68,8.5-14.39Z" fill="#f3bb1f"/>
    </g>
  </g>
  <g id="f" data-name="&amp;lt;径向重复&amp;gt;">
    <g id="g" data-name="&amp;lt;径向重复&amp;gt;">
      <path d="M79,209.39c.59.54-2.13,3.77-9.07,13.92-.63.92-12.7,18.56-20.3,21.67-.68.28-2.56,1.05-3.41.27-.82-.75-.28-2.56-.09-3.22,2.33-7.88,19.75-22.29,19.75-22.29,9.55-7.89,12.53-10.89,13.12-10.35Z" fill="#f3bb1f"/>
    </g>
  </g>
  <g id="h" data-name="&amp;lt;径向重复&amp;gt;">
    <g id="i" data-name="&amp;lt;径向重复&amp;gt;">
      <path d="M58.36,182.07c.36.72-3.35,2.75-13.49,9.7-.92.63-18.55,12.72-26.76,12.88-.74.01-2.76.05-3.28-.98-.49-1,.66-2.49,1.08-3.03,5.02-6.51,26.47-13.65,26.47-13.65,11.75-3.91,15.62-5.63,15.97-4.91Z" fill="#f3bb1f"/>
    </g>
  </g>
  <g id="j" data-name="&amp;lt;径向重复&amp;gt;">
    <g id="k" data-name="&amp;lt;径向重复&amp;gt;">
      <path d="M48.99,149.15c.07.8-4.11,1.36-16.08,4.17-1.09.26-21.89,5.16-29.61,2.34-.69-.25-2.6-.95-2.7-2.1-.1-1.11,1.52-2.08,2.1-2.44,7.03-4.26,29.62-3.17,29.62-3.17,12.37.6,16.6.39,16.67,1.19Z" fill="#f3bb1f"/>
    </g>
  </g>
  <g id="l" data-name="&amp;lt;径向重复&amp;gt;">
    <g id="m" data-name="&amp;lt;径向重复&amp;gt;">
      <path d="M52.14,115.07c-.22.77-4.32-.22-16.5-1.92-1.1-.15-22.27-3.1-28.45-8.51-.55-.49-2.08-1.82-1.76-2.93.31-1.07,2.17-1.4,2.84-1.51,8.09-1.43,28.76,7.75,28.76,7.75,11.32,5.03,15.33,6.36,15.11,7.13Z" fill="#f3bb1f"/>
    </g>
  </g>
  <g id="n" data-name="&amp;lt;径向重复&amp;gt;">
    <g id="o" data-name="&amp;lt;径向重复&amp;gt;">
      <path d="M67.39,84.42c-.48.64-3.95-1.77-14.69-7.75-.97-.54-19.65-10.94-23.45-18.22-.34-.65-1.28-2.45-.58-3.37.67-.88,2.52-.52,3.19-.39,8.06,1.59,24.02,17.61,24.02,17.61,8.74,8.78,12,11.47,11.52,12.11Z" fill="#f3bb1f"/>
    </g>
  </g>
  <g id="p" data-name="&amp;lt;径向重复&amp;gt;">
    <g id="q" data-name="&amp;lt;径向重复&amp;gt;">
      <path d="M92.69,61.36c-.68.42-3.05-3.08-10.9-12.53-.71-.86-14.37-17.3-15.29-25.46-.08-.73-.31-2.75.68-3.35.95-.58,2.54.43,3.12.79,6.94,4.4,16.04,25.1,16.04,25.1,4.98,11.34,7.04,15.03,6.36,15.45Z" fill="#f3bb1f"/>
    </g>
  </g>
  <g id="r" data-name="&amp;lt;径向重复&amp;gt;">
    <g id="s" data-name="&amp;lt;径向重复&amp;gt;">
      <path d="M124.6,48.98c-.79.15-1.73-3.97-5.64-15.63-.35-1.06-7.15-21.32-5.06-29.26.19-.71.7-2.67,1.84-2.88,1.09-.2,2.21,1.32,2.62,1.87,4.89,6.61,5.88,29.2,5.88,29.2.55,12.38,1.14,16.56.35,16.71Z" fill="#f3bb1f"/>
    </g>
  </g>
  <g id="t" data-name="&amp;lt;径向重复&amp;gt;">
    <g id="u" data-name="&amp;lt;径向重复&amp;gt;">
      <path d="M158.83,48.98c-.79-.15-.18-4.33.39-16.61.05-1.11,1.03-22.47,5.85-29.12.43-.6,1.62-2.24,2.76-2.02,1.09.21,1.59,2.03,1.77,2.69,2.17,7.93-5.06,29.35-5.06,29.35-3.96,11.74-4.92,15.85-5.71,15.71Z" fill="#f3bb1f"/>
    </g>
  </g>
  <g id="v" data-name="&amp;lt;径向重复&amp;gt;">
    <g id="w" data-name="&amp;lt;径向重复&amp;gt;">
      <path d="M190.76,61.34c-.68-.42,1.4-4.1,6.36-15.35.45-1.02,9.08-20.58,15.97-25.03.62-.4,2.32-1.5,3.3-.89.94.59.75,2.46.68,3.14-.84,8.18-15.32,25.54-15.32,25.54-7.93,9.51-10.32,13.01-11,12.58Z" fill="#f3bb1f"/>
    </g>
  </g>
  <g id="x" data-name="&amp;lt;径向重复&amp;gt;">
    <g id="y" data-name="&amp;lt;径向重复&amp;gt;">
      <path d="M216.06,84.39c-.48-.64,2.78-3.32,11.48-12.01.79-.79,15.9-15.91,23.94-17.57.72-.15,2.71-.56,3.4.36.67.89-.19,2.57-.5,3.18-3.74,7.32-23.51,18.28-23.51,18.28-10.84,6.01-14.32,8.4-14.8,7.76Z" fill="#f3bb1f"/>
    </g>
  </g>
  <g id="z" data-name="&amp;lt;径向重复&amp;gt;">
    <g id="aa" data-name="&amp;lt;径向重复&amp;gt;">
      <path d="M231.32,115.03c-.22-.77,3.79-2.09,15.04-7.06,1.02-.45,20.57-9.09,28.67-7.74.73.12,2.73.46,3.04,1.57.3,1.07-1.11,2.33-1.62,2.78-6.13,5.48-28.53,8.55-28.53,8.55-12.27,1.69-16.39,2.66-16.6,1.89Z" fill="#f3bb1f"/>
    </g>
  </g>
  <g id="ab" data-name="&amp;lt;径向重复&amp;gt;">
    <g id="ac" data-name="&amp;lt;径向重复&amp;gt;">
      <path d="M234.49,149.12c.08-.8,4.29-.58,16.57-1.15,1.11-.05,22.47-1.05,29.53,3.14.63.38,2.38,1.41,2.27,2.56-.11,1.11-1.87,1.77-2.51,2.01-7.69,2.89-29.7-2.33-29.7-2.33-12.05-2.86-16.24-3.44-16.17-4.23Z" fill="#f3bb1f"/>
    </g>
  </g>
  <g id="ad" data-name="&amp;lt;径向重复&amp;gt;">
    <g id="ae" data-name="&amp;lt;径向重复&amp;gt;">
      <path d="M225.13,182.04c.36-.72,4.21,1.01,15.87,4.92,1.06.35,21.33,7.14,26.4,13.6.46.58,1.71,2.17,1.19,3.21-.5.99-2.39.97-3.07.97-8.22-.08-26.85-12.9-26.85-12.9-10.21-7.02-13.9-9.07-13.54-9.79Z" fill="#f3bb1f"/>
    </g>
  </g>
  <g id="af" data-name="&amp;lt;径向重复&amp;gt;">
    <g id="ag" data-name="&amp;lt;径向重复&amp;gt;">
      <path d="M204.5,209.36c.59-.54,3.56,2.47,13.02,10.32.86.71,17.31,14.36,19.71,22.22.22.7.81,2.64-.05,3.42-.82.75-2.58.05-3.21-.21-7.63-3.05-20.37-21.73-20.37-21.73-6.98-10.23-9.69-13.48-9.09-14.02Z" fill="#f3bb1f"/>
    </g>
  </g>
  <g id="ah" data-name="&amp;lt;径向重复&amp;gt;">
    <g id="ai" data-name="&amp;lt;径向重复&amp;gt;">
      <path d="M175.4,227.39c.75-.29,2.43,3.58,8.41,14.32.54.97,10.95,19.64,10.35,27.84-.05.73-.2,2.76-1.28,3.17-1.04.4-2.42-.89-2.92-1.35-6.02-5.6-11.15-27.62-11.15-27.62-2.81-12.07-4.16-16.07-3.42-16.36Z" fill="#f3bb1f"/>
    </g>
  </g>
</svg>